%TF.GenerationSoftware,KiCad,Pcbnew,8.0.5*%
%TF.CreationDate,2025-04-09T14:44:18+10:00*%
%TF.ProjectId,eurorack_panel,6575726f-7261-4636-9b5f-70616e656c2e,rev?*%
%TF.SameCoordinates,Original*%
%TF.FileFunction,Legend,Bot*%
%TF.FilePolarity,Positive*%
%FSLAX46Y46*%
G04 Gerber Fmt 4.6, Leading zero omitted, Abs format (unit mm)*
G04 Created by KiCad (PCBNEW 8.0.5) date 2025-04-09 14:44:18*
%MOMM*%
%LPD*%
G01*
G04 APERTURE LIST*
%ADD10C,0.150000*%
%ADD11C,0.300000*%
G04 APERTURE END LIST*
D10*
X146919048Y-155754819D02*
X146919048Y-156469104D01*
X146919048Y-156469104D02*
X146966667Y-156611961D01*
X146966667Y-156611961D02*
X147061905Y-156707200D01*
X147061905Y-156707200D02*
X147204762Y-156754819D01*
X147204762Y-156754819D02*
X147300000Y-156754819D01*
X145966667Y-156754819D02*
X146442857Y-156754819D01*
X146442857Y-156754819D02*
X146442857Y-155754819D01*
X145061905Y-156659580D02*
X145109524Y-156707200D01*
X145109524Y-156707200D02*
X145252381Y-156754819D01*
X145252381Y-156754819D02*
X145347619Y-156754819D01*
X145347619Y-156754819D02*
X145490476Y-156707200D01*
X145490476Y-156707200D02*
X145585714Y-156611961D01*
X145585714Y-156611961D02*
X145633333Y-156516723D01*
X145633333Y-156516723D02*
X145680952Y-156326247D01*
X145680952Y-156326247D02*
X145680952Y-156183390D01*
X145680952Y-156183390D02*
X145633333Y-155992914D01*
X145633333Y-155992914D02*
X145585714Y-155897676D01*
X145585714Y-155897676D02*
X145490476Y-155802438D01*
X145490476Y-155802438D02*
X145347619Y-155754819D01*
X145347619Y-155754819D02*
X145252381Y-155754819D01*
X145252381Y-155754819D02*
X145109524Y-155802438D01*
X145109524Y-155802438D02*
X145061905Y-155850057D01*
X144347619Y-155754819D02*
X144347619Y-156469104D01*
X144347619Y-156469104D02*
X144395238Y-156611961D01*
X144395238Y-156611961D02*
X144490476Y-156707200D01*
X144490476Y-156707200D02*
X144633333Y-156754819D01*
X144633333Y-156754819D02*
X144728571Y-156754819D01*
X143395238Y-156754819D02*
X143871428Y-156754819D01*
X143871428Y-156754819D02*
X143871428Y-155754819D01*
X142490476Y-156659580D02*
X142538095Y-156707200D01*
X142538095Y-156707200D02*
X142680952Y-156754819D01*
X142680952Y-156754819D02*
X142776190Y-156754819D01*
X142776190Y-156754819D02*
X142919047Y-156707200D01*
X142919047Y-156707200D02*
X143014285Y-156611961D01*
X143014285Y-156611961D02*
X143061904Y-156516723D01*
X143061904Y-156516723D02*
X143109523Y-156326247D01*
X143109523Y-156326247D02*
X143109523Y-156183390D01*
X143109523Y-156183390D02*
X143061904Y-155992914D01*
X143061904Y-155992914D02*
X143014285Y-155897676D01*
X143014285Y-155897676D02*
X142919047Y-155802438D01*
X142919047Y-155802438D02*
X142776190Y-155754819D01*
X142776190Y-155754819D02*
X142680952Y-155754819D01*
X142680952Y-155754819D02*
X142538095Y-155802438D01*
X142538095Y-155802438D02*
X142490476Y-155850057D01*
X141776190Y-155754819D02*
X141776190Y-156469104D01*
X141776190Y-156469104D02*
X141823809Y-156611961D01*
X141823809Y-156611961D02*
X141919047Y-156707200D01*
X141919047Y-156707200D02*
X142061904Y-156754819D01*
X142061904Y-156754819D02*
X142157142Y-156754819D01*
X140823809Y-156754819D02*
X141299999Y-156754819D01*
X141299999Y-156754819D02*
X141299999Y-155754819D01*
X139919047Y-156659580D02*
X139966666Y-156707200D01*
X139966666Y-156707200D02*
X140109523Y-156754819D01*
X140109523Y-156754819D02*
X140204761Y-156754819D01*
X140204761Y-156754819D02*
X140347618Y-156707200D01*
X140347618Y-156707200D02*
X140442856Y-156611961D01*
X140442856Y-156611961D02*
X140490475Y-156516723D01*
X140490475Y-156516723D02*
X140538094Y-156326247D01*
X140538094Y-156326247D02*
X140538094Y-156183390D01*
X140538094Y-156183390D02*
X140490475Y-155992914D01*
X140490475Y-155992914D02*
X140442856Y-155897676D01*
X140442856Y-155897676D02*
X140347618Y-155802438D01*
X140347618Y-155802438D02*
X140204761Y-155754819D01*
X140204761Y-155754819D02*
X140109523Y-155754819D01*
X140109523Y-155754819D02*
X139966666Y-155802438D01*
X139966666Y-155802438D02*
X139919047Y-155850057D01*
X139204761Y-155754819D02*
X139204761Y-156469104D01*
X139204761Y-156469104D02*
X139252380Y-156611961D01*
X139252380Y-156611961D02*
X139347618Y-156707200D01*
X139347618Y-156707200D02*
X139490475Y-156754819D01*
X139490475Y-156754819D02*
X139585713Y-156754819D01*
X138252380Y-156754819D02*
X138728570Y-156754819D01*
X138728570Y-156754819D02*
X138728570Y-155754819D01*
X137347618Y-156659580D02*
X137395237Y-156707200D01*
X137395237Y-156707200D02*
X137538094Y-156754819D01*
X137538094Y-156754819D02*
X137633332Y-156754819D01*
X137633332Y-156754819D02*
X137776189Y-156707200D01*
X137776189Y-156707200D02*
X137871427Y-156611961D01*
X137871427Y-156611961D02*
X137919046Y-156516723D01*
X137919046Y-156516723D02*
X137966665Y-156326247D01*
X137966665Y-156326247D02*
X137966665Y-156183390D01*
X137966665Y-156183390D02*
X137919046Y-155992914D01*
X137919046Y-155992914D02*
X137871427Y-155897676D01*
X137871427Y-155897676D02*
X137776189Y-155802438D01*
X137776189Y-155802438D02*
X137633332Y-155754819D01*
X137633332Y-155754819D02*
X137538094Y-155754819D01*
X137538094Y-155754819D02*
X137395237Y-155802438D01*
X137395237Y-155802438D02*
X137347618Y-155850057D01*
D11*
X149833566Y-143452632D02*
X149776423Y-143566917D01*
X149776423Y-143566917D02*
X149776423Y-143795489D01*
X149776423Y-143795489D02*
X149833566Y-143909774D01*
X149833566Y-143909774D02*
X149890708Y-143966917D01*
X149890708Y-143966917D02*
X150004994Y-144024060D01*
X150004994Y-144024060D02*
X150347851Y-144024060D01*
X150347851Y-144024060D02*
X150462137Y-143966917D01*
X150462137Y-143966917D02*
X150519280Y-143909774D01*
X150519280Y-143909774D02*
X150576423Y-143795489D01*
X150576423Y-143795489D02*
X150576423Y-143566917D01*
X150576423Y-143566917D02*
X150519280Y-143452632D01*
X150576423Y-143052632D02*
X149776423Y-142766918D01*
X150576423Y-142481203D02*
X149776423Y-142766918D01*
X149776423Y-142766918D02*
X149490708Y-142881203D01*
X149490708Y-142881203D02*
X149433566Y-142938346D01*
X149433566Y-142938346D02*
X149376423Y-143052632D01*
X149776423Y-142024060D02*
X150976423Y-142024060D01*
X150519280Y-142024060D02*
X150576423Y-141909775D01*
X150576423Y-141909775D02*
X150576423Y-141681203D01*
X150576423Y-141681203D02*
X150519280Y-141566917D01*
X150519280Y-141566917D02*
X150462137Y-141509775D01*
X150462137Y-141509775D02*
X150347851Y-141452632D01*
X150347851Y-141452632D02*
X150004994Y-141452632D01*
X150004994Y-141452632D02*
X149890708Y-141509775D01*
X149890708Y-141509775D02*
X149833566Y-141566917D01*
X149833566Y-141566917D02*
X149776423Y-141681203D01*
X149776423Y-141681203D02*
X149776423Y-141909775D01*
X149776423Y-141909775D02*
X149833566Y-142024060D01*
X149833566Y-140481203D02*
X149776423Y-140595489D01*
X149776423Y-140595489D02*
X149776423Y-140824061D01*
X149776423Y-140824061D02*
X149833566Y-140938346D01*
X149833566Y-140938346D02*
X149947851Y-140995489D01*
X149947851Y-140995489D02*
X150404994Y-140995489D01*
X150404994Y-140995489D02*
X150519280Y-140938346D01*
X150519280Y-140938346D02*
X150576423Y-140824061D01*
X150576423Y-140824061D02*
X150576423Y-140595489D01*
X150576423Y-140595489D02*
X150519280Y-140481203D01*
X150519280Y-140481203D02*
X150404994Y-140424061D01*
X150404994Y-140424061D02*
X150290708Y-140424061D01*
X150290708Y-140424061D02*
X150176423Y-140995489D01*
X149776423Y-139909775D02*
X150576423Y-139909775D01*
X150347851Y-139909775D02*
X150462137Y-139852632D01*
X150462137Y-139852632D02*
X150519280Y-139795490D01*
X150519280Y-139795490D02*
X150576423Y-139681204D01*
X150576423Y-139681204D02*
X150576423Y-139566918D01*
X149776423Y-139166918D02*
X150976423Y-139166918D01*
X150519280Y-139166918D02*
X150576423Y-139052633D01*
X150576423Y-139052633D02*
X150576423Y-138824061D01*
X150576423Y-138824061D02*
X150519280Y-138709775D01*
X150519280Y-138709775D02*
X150462137Y-138652633D01*
X150462137Y-138652633D02*
X150347851Y-138595490D01*
X150347851Y-138595490D02*
X150004994Y-138595490D01*
X150004994Y-138595490D02*
X149890708Y-138652633D01*
X149890708Y-138652633D02*
X149833566Y-138709775D01*
X149833566Y-138709775D02*
X149776423Y-138824061D01*
X149776423Y-138824061D02*
X149776423Y-139052633D01*
X149776423Y-139052633D02*
X149833566Y-139166918D01*
X149776423Y-137909776D02*
X149833566Y-138024061D01*
X149833566Y-138024061D02*
X149890708Y-138081204D01*
X149890708Y-138081204D02*
X150004994Y-138138347D01*
X150004994Y-138138347D02*
X150347851Y-138138347D01*
X150347851Y-138138347D02*
X150462137Y-138081204D01*
X150462137Y-138081204D02*
X150519280Y-138024061D01*
X150519280Y-138024061D02*
X150576423Y-137909776D01*
X150576423Y-137909776D02*
X150576423Y-137738347D01*
X150576423Y-137738347D02*
X150519280Y-137624061D01*
X150519280Y-137624061D02*
X150462137Y-137566919D01*
X150462137Y-137566919D02*
X150347851Y-137509776D01*
X150347851Y-137509776D02*
X150004994Y-137509776D01*
X150004994Y-137509776D02*
X149890708Y-137566919D01*
X149890708Y-137566919D02*
X149833566Y-137624061D01*
X149833566Y-137624061D02*
X149776423Y-137738347D01*
X149776423Y-137738347D02*
X149776423Y-137909776D01*
X150576423Y-137109776D02*
X149776423Y-136824062D01*
X150576423Y-136538347D02*
X149776423Y-136824062D01*
X149776423Y-136824062D02*
X149490708Y-136938347D01*
X149490708Y-136938347D02*
X149433566Y-136995490D01*
X149433566Y-136995490D02*
X149376423Y-137109776D01*
X150976423Y-135566919D02*
X150976423Y-135795490D01*
X150976423Y-135795490D02*
X150919280Y-135909776D01*
X150919280Y-135909776D02*
X150862137Y-135966919D01*
X150862137Y-135966919D02*
X150690708Y-136081204D01*
X150690708Y-136081204D02*
X150462137Y-136138347D01*
X150462137Y-136138347D02*
X150004994Y-136138347D01*
X150004994Y-136138347D02*
X149890708Y-136081204D01*
X149890708Y-136081204D02*
X149833566Y-136024061D01*
X149833566Y-136024061D02*
X149776423Y-135909776D01*
X149776423Y-135909776D02*
X149776423Y-135681204D01*
X149776423Y-135681204D02*
X149833566Y-135566919D01*
X149833566Y-135566919D02*
X149890708Y-135509776D01*
X149890708Y-135509776D02*
X150004994Y-135452633D01*
X150004994Y-135452633D02*
X150290708Y-135452633D01*
X150290708Y-135452633D02*
X150404994Y-135509776D01*
X150404994Y-135509776D02*
X150462137Y-135566919D01*
X150462137Y-135566919D02*
X150519280Y-135681204D01*
X150519280Y-135681204D02*
X150519280Y-135909776D01*
X150519280Y-135909776D02*
X150462137Y-136024061D01*
X150462137Y-136024061D02*
X150404994Y-136081204D01*
X150404994Y-136081204D02*
X150290708Y-136138347D01*
X150976423Y-134424062D02*
X150976423Y-134652633D01*
X150976423Y-134652633D02*
X150919280Y-134766919D01*
X150919280Y-134766919D02*
X150862137Y-134824062D01*
X150862137Y-134824062D02*
X150690708Y-134938347D01*
X150690708Y-134938347D02*
X150462137Y-134995490D01*
X150462137Y-134995490D02*
X150004994Y-134995490D01*
X150004994Y-134995490D02*
X149890708Y-134938347D01*
X149890708Y-134938347D02*
X149833566Y-134881204D01*
X149833566Y-134881204D02*
X149776423Y-134766919D01*
X149776423Y-134766919D02*
X149776423Y-134538347D01*
X149776423Y-134538347D02*
X149833566Y-134424062D01*
X149833566Y-134424062D02*
X149890708Y-134366919D01*
X149890708Y-134366919D02*
X150004994Y-134309776D01*
X150004994Y-134309776D02*
X150290708Y-134309776D01*
X150290708Y-134309776D02*
X150404994Y-134366919D01*
X150404994Y-134366919D02*
X150462137Y-134424062D01*
X150462137Y-134424062D02*
X150519280Y-134538347D01*
X150519280Y-134538347D02*
X150519280Y-134766919D01*
X150519280Y-134766919D02*
X150462137Y-134881204D01*
X150462137Y-134881204D02*
X150404994Y-134938347D01*
X150404994Y-134938347D02*
X150290708Y-134995490D01*
X150976423Y-133281205D02*
X150976423Y-133509776D01*
X150976423Y-133509776D02*
X150919280Y-133624062D01*
X150919280Y-133624062D02*
X150862137Y-133681205D01*
X150862137Y-133681205D02*
X150690708Y-133795490D01*
X150690708Y-133795490D02*
X150462137Y-133852633D01*
X150462137Y-133852633D02*
X150004994Y-133852633D01*
X150004994Y-133852633D02*
X149890708Y-133795490D01*
X149890708Y-133795490D02*
X149833566Y-133738347D01*
X149833566Y-133738347D02*
X149776423Y-133624062D01*
X149776423Y-133624062D02*
X149776423Y-133395490D01*
X149776423Y-133395490D02*
X149833566Y-133281205D01*
X149833566Y-133281205D02*
X149890708Y-133224062D01*
X149890708Y-133224062D02*
X150004994Y-133166919D01*
X150004994Y-133166919D02*
X150290708Y-133166919D01*
X150290708Y-133166919D02*
X150404994Y-133224062D01*
X150404994Y-133224062D02*
X150462137Y-133281205D01*
X150462137Y-133281205D02*
X150519280Y-133395490D01*
X150519280Y-133395490D02*
X150519280Y-133624062D01*
X150519280Y-133624062D02*
X150462137Y-133738347D01*
X150462137Y-133738347D02*
X150404994Y-133795490D01*
X150404994Y-133795490D02*
X150290708Y-133852633D01*
X149776423Y-130766919D02*
X149776423Y-130824062D01*
X149776423Y-130824062D02*
X149833566Y-130938347D01*
X149833566Y-130938347D02*
X150004994Y-131109776D01*
X150004994Y-131109776D02*
X150347851Y-131395490D01*
X150347851Y-131395490D02*
X150519280Y-131509776D01*
X150519280Y-131509776D02*
X150690708Y-131566919D01*
X150690708Y-131566919D02*
X150804994Y-131566919D01*
X150804994Y-131566919D02*
X150919280Y-131509776D01*
X150919280Y-131509776D02*
X150976423Y-131395490D01*
X150976423Y-131395490D02*
X150976423Y-131338347D01*
X150976423Y-131338347D02*
X150919280Y-131224062D01*
X150919280Y-131224062D02*
X150804994Y-131166919D01*
X150804994Y-131166919D02*
X150747851Y-131166919D01*
X150747851Y-131166919D02*
X150633566Y-131224062D01*
X150633566Y-131224062D02*
X150576423Y-131281204D01*
X150576423Y-131281204D02*
X150347851Y-131624062D01*
X150347851Y-131624062D02*
X150290708Y-131681204D01*
X150290708Y-131681204D02*
X150176423Y-131738347D01*
X150176423Y-131738347D02*
X150004994Y-131738347D01*
X150004994Y-131738347D02*
X149890708Y-131681204D01*
X149890708Y-131681204D02*
X149833566Y-131624062D01*
X149833566Y-131624062D02*
X149776423Y-131509776D01*
X149776423Y-131509776D02*
X149776423Y-131338347D01*
X149776423Y-131338347D02*
X149833566Y-131224062D01*
X149833566Y-131224062D02*
X149890708Y-131166919D01*
X149890708Y-131166919D02*
X150119280Y-130995490D01*
X150119280Y-130995490D02*
X150290708Y-130938347D01*
X150290708Y-130938347D02*
X150404994Y-130938347D01*
X149776423Y-129338347D02*
X150576423Y-129338347D01*
X150976423Y-129338347D02*
X150919280Y-129395490D01*
X150919280Y-129395490D02*
X150862137Y-129338347D01*
X150862137Y-129338347D02*
X150919280Y-129281204D01*
X150919280Y-129281204D02*
X150976423Y-129338347D01*
X150976423Y-129338347D02*
X150862137Y-129338347D01*
X149833566Y-128252633D02*
X149776423Y-128366918D01*
X149776423Y-128366918D02*
X149776423Y-128595490D01*
X149776423Y-128595490D02*
X149833566Y-128709775D01*
X149833566Y-128709775D02*
X149890708Y-128766918D01*
X149890708Y-128766918D02*
X150004994Y-128824061D01*
X150004994Y-128824061D02*
X150347851Y-128824061D01*
X150347851Y-128824061D02*
X150462137Y-128766918D01*
X150462137Y-128766918D02*
X150519280Y-128709775D01*
X150519280Y-128709775D02*
X150576423Y-128595490D01*
X150576423Y-128595490D02*
X150576423Y-128366918D01*
X150576423Y-128366918D02*
X150519280Y-128252633D01*
X149776423Y-127738347D02*
X150976423Y-127738347D01*
X149776423Y-127224062D02*
X150404994Y-127224062D01*
X150404994Y-127224062D02*
X150519280Y-127281204D01*
X150519280Y-127281204D02*
X150576423Y-127395490D01*
X150576423Y-127395490D02*
X150576423Y-127566919D01*
X150576423Y-127566919D02*
X150519280Y-127681204D01*
X150519280Y-127681204D02*
X150462137Y-127738347D01*
X149776423Y-126652633D02*
X150576423Y-126652633D01*
X150976423Y-126652633D02*
X150919280Y-126709776D01*
X150919280Y-126709776D02*
X150862137Y-126652633D01*
X150862137Y-126652633D02*
X150919280Y-126595490D01*
X150919280Y-126595490D02*
X150976423Y-126652633D01*
X150976423Y-126652633D02*
X150862137Y-126652633D01*
X149776423Y-125166918D02*
X150576423Y-125166918D01*
X150347851Y-125166918D02*
X150462137Y-125109775D01*
X150462137Y-125109775D02*
X150519280Y-125052633D01*
X150519280Y-125052633D02*
X150576423Y-124938347D01*
X150576423Y-124938347D02*
X150576423Y-124824061D01*
X149776423Y-123909776D02*
X150404994Y-123909776D01*
X150404994Y-123909776D02*
X150519280Y-123966918D01*
X150519280Y-123966918D02*
X150576423Y-124081204D01*
X150576423Y-124081204D02*
X150576423Y-124309776D01*
X150576423Y-124309776D02*
X150519280Y-124424061D01*
X149833566Y-123909776D02*
X149776423Y-124024061D01*
X149776423Y-124024061D02*
X149776423Y-124309776D01*
X149776423Y-124309776D02*
X149833566Y-124424061D01*
X149833566Y-124424061D02*
X149947851Y-124481204D01*
X149947851Y-124481204D02*
X150062137Y-124481204D01*
X150062137Y-124481204D02*
X150176423Y-124424061D01*
X150176423Y-124424061D02*
X150233566Y-124309776D01*
X150233566Y-124309776D02*
X150233566Y-124024061D01*
X150233566Y-124024061D02*
X150290708Y-123909776D01*
X149776423Y-123338347D02*
X150576423Y-123338347D01*
X150347851Y-123338347D02*
X150462137Y-123281204D01*
X150462137Y-123281204D02*
X150519280Y-123224062D01*
X150519280Y-123224062D02*
X150576423Y-123109776D01*
X150576423Y-123109776D02*
X150576423Y-122995490D01*
X149776423Y-122081205D02*
X150404994Y-122081205D01*
X150404994Y-122081205D02*
X150519280Y-122138347D01*
X150519280Y-122138347D02*
X150576423Y-122252633D01*
X150576423Y-122252633D02*
X150576423Y-122481205D01*
X150576423Y-122481205D02*
X150519280Y-122595490D01*
X149833566Y-122081205D02*
X149776423Y-122195490D01*
X149776423Y-122195490D02*
X149776423Y-122481205D01*
X149776423Y-122481205D02*
X149833566Y-122595490D01*
X149833566Y-122595490D02*
X149947851Y-122652633D01*
X149947851Y-122652633D02*
X150062137Y-122652633D01*
X150062137Y-122652633D02*
X150176423Y-122595490D01*
X150176423Y-122595490D02*
X150233566Y-122481205D01*
X150233566Y-122481205D02*
X150233566Y-122195490D01*
X150233566Y-122195490D02*
X150290708Y-122081205D01*
X149776423Y-121509776D02*
X150576423Y-121509776D01*
X150462137Y-121509776D02*
X150519280Y-121452633D01*
X150519280Y-121452633D02*
X150576423Y-121338348D01*
X150576423Y-121338348D02*
X150576423Y-121166919D01*
X150576423Y-121166919D02*
X150519280Y-121052633D01*
X150519280Y-121052633D02*
X150404994Y-120995491D01*
X150404994Y-120995491D02*
X149776423Y-120995491D01*
X150404994Y-120995491D02*
X150519280Y-120938348D01*
X150519280Y-120938348D02*
X150576423Y-120824062D01*
X150576423Y-120824062D02*
X150576423Y-120652633D01*
X150576423Y-120652633D02*
X150519280Y-120538348D01*
X150519280Y-120538348D02*
X150404994Y-120481205D01*
X150404994Y-120481205D02*
X149776423Y-120481205D01*
X150576423Y-119395491D02*
X149776423Y-119395491D01*
X150576423Y-119909776D02*
X149947851Y-119909776D01*
X149947851Y-119909776D02*
X149833566Y-119852633D01*
X149833566Y-119852633D02*
X149776423Y-119738348D01*
X149776423Y-119738348D02*
X149776423Y-119566919D01*
X149776423Y-119566919D02*
X149833566Y-119452633D01*
X149833566Y-119452633D02*
X149890708Y-119395491D01*
X149776423Y-118824062D02*
X150576423Y-118824062D01*
X150347851Y-118824062D02*
X150462137Y-118766919D01*
X150462137Y-118766919D02*
X150519280Y-118709777D01*
X150519280Y-118709777D02*
X150576423Y-118595491D01*
X150576423Y-118595491D02*
X150576423Y-118481205D01*
X149776423Y-118081205D02*
X150576423Y-118081205D01*
X150976423Y-118081205D02*
X150919280Y-118138348D01*
X150919280Y-118138348D02*
X150862137Y-118081205D01*
X150862137Y-118081205D02*
X150919280Y-118024062D01*
X150919280Y-118024062D02*
X150976423Y-118081205D01*
X150976423Y-118081205D02*
X150862137Y-118081205D01*
X147844490Y-143966917D02*
X148644490Y-143966917D01*
X148415918Y-143966917D02*
X148530204Y-143909774D01*
X148530204Y-143909774D02*
X148587347Y-143852632D01*
X148587347Y-143852632D02*
X148644490Y-143738346D01*
X148644490Y-143738346D02*
X148644490Y-143624060D01*
X147901633Y-142766917D02*
X147844490Y-142881203D01*
X147844490Y-142881203D02*
X147844490Y-143109775D01*
X147844490Y-143109775D02*
X147901633Y-143224060D01*
X147901633Y-143224060D02*
X148015918Y-143281203D01*
X148015918Y-143281203D02*
X148473061Y-143281203D01*
X148473061Y-143281203D02*
X148587347Y-143224060D01*
X148587347Y-143224060D02*
X148644490Y-143109775D01*
X148644490Y-143109775D02*
X148644490Y-142881203D01*
X148644490Y-142881203D02*
X148587347Y-142766917D01*
X148587347Y-142766917D02*
X148473061Y-142709775D01*
X148473061Y-142709775D02*
X148358775Y-142709775D01*
X148358775Y-142709775D02*
X148244490Y-143281203D01*
X147901633Y-141681204D02*
X147844490Y-141795489D01*
X147844490Y-141795489D02*
X147844490Y-142024061D01*
X147844490Y-142024061D02*
X147901633Y-142138346D01*
X147901633Y-142138346D02*
X147958775Y-142195489D01*
X147958775Y-142195489D02*
X148073061Y-142252632D01*
X148073061Y-142252632D02*
X148415918Y-142252632D01*
X148415918Y-142252632D02*
X148530204Y-142195489D01*
X148530204Y-142195489D02*
X148587347Y-142138346D01*
X148587347Y-142138346D02*
X148644490Y-142024061D01*
X148644490Y-142024061D02*
X148644490Y-141795489D01*
X148644490Y-141795489D02*
X148587347Y-141681204D01*
X148644490Y-140652633D02*
X147844490Y-140652633D01*
X148644490Y-141166918D02*
X148015918Y-141166918D01*
X148015918Y-141166918D02*
X147901633Y-141109775D01*
X147901633Y-141109775D02*
X147844490Y-140995490D01*
X147844490Y-140995490D02*
X147844490Y-140824061D01*
X147844490Y-140824061D02*
X147901633Y-140709775D01*
X147901633Y-140709775D02*
X147958775Y-140652633D01*
X147844490Y-140081204D02*
X148644490Y-140081204D01*
X148415918Y-140081204D02*
X148530204Y-140024061D01*
X148530204Y-140024061D02*
X148587347Y-139966919D01*
X148587347Y-139966919D02*
X148644490Y-139852633D01*
X148644490Y-139852633D02*
X148644490Y-139738347D01*
X148473061Y-138938347D02*
X148415918Y-138766919D01*
X148415918Y-138766919D02*
X148358775Y-138709776D01*
X148358775Y-138709776D02*
X148244490Y-138652633D01*
X148244490Y-138652633D02*
X148073061Y-138652633D01*
X148073061Y-138652633D02*
X147958775Y-138709776D01*
X147958775Y-138709776D02*
X147901633Y-138766919D01*
X147901633Y-138766919D02*
X147844490Y-138881204D01*
X147844490Y-138881204D02*
X147844490Y-139338347D01*
X147844490Y-139338347D02*
X149044490Y-139338347D01*
X149044490Y-139338347D02*
X149044490Y-138938347D01*
X149044490Y-138938347D02*
X148987347Y-138824062D01*
X148987347Y-138824062D02*
X148930204Y-138766919D01*
X148930204Y-138766919D02*
X148815918Y-138709776D01*
X148815918Y-138709776D02*
X148701633Y-138709776D01*
X148701633Y-138709776D02*
X148587347Y-138766919D01*
X148587347Y-138766919D02*
X148530204Y-138824062D01*
X148530204Y-138824062D02*
X148473061Y-138938347D01*
X148473061Y-138938347D02*
X148473061Y-139338347D01*
X149044490Y-137909776D02*
X149044490Y-137681204D01*
X149044490Y-137681204D02*
X148987347Y-137566919D01*
X148987347Y-137566919D02*
X148873061Y-137452633D01*
X148873061Y-137452633D02*
X148644490Y-137395490D01*
X148644490Y-137395490D02*
X148244490Y-137395490D01*
X148244490Y-137395490D02*
X148015918Y-137452633D01*
X148015918Y-137452633D02*
X147901633Y-137566919D01*
X147901633Y-137566919D02*
X147844490Y-137681204D01*
X147844490Y-137681204D02*
X147844490Y-137909776D01*
X147844490Y-137909776D02*
X147901633Y-138024062D01*
X147901633Y-138024062D02*
X148015918Y-138138347D01*
X148015918Y-138138347D02*
X148244490Y-138195490D01*
X148244490Y-138195490D02*
X148644490Y-138195490D01*
X148644490Y-138195490D02*
X148873061Y-138138347D01*
X148873061Y-138138347D02*
X148987347Y-138024062D01*
X148987347Y-138024062D02*
X149044490Y-137909776D01*
X148415918Y-136652633D02*
X147844490Y-136652633D01*
X149044490Y-137052633D02*
X148415918Y-136652633D01*
X148415918Y-136652633D02*
X149044490Y-136252633D01*
X148644490Y-134938347D02*
X147444490Y-134938347D01*
X148587347Y-134938347D02*
X148644490Y-134824062D01*
X148644490Y-134824062D02*
X148644490Y-134595490D01*
X148644490Y-134595490D02*
X148587347Y-134481204D01*
X148587347Y-134481204D02*
X148530204Y-134424062D01*
X148530204Y-134424062D02*
X148415918Y-134366919D01*
X148415918Y-134366919D02*
X148073061Y-134366919D01*
X148073061Y-134366919D02*
X147958775Y-134424062D01*
X147958775Y-134424062D02*
X147901633Y-134481204D01*
X147901633Y-134481204D02*
X147844490Y-134595490D01*
X147844490Y-134595490D02*
X147844490Y-134824062D01*
X147844490Y-134824062D02*
X147901633Y-134938347D01*
X147844490Y-133338348D02*
X148473061Y-133338348D01*
X148473061Y-133338348D02*
X148587347Y-133395490D01*
X148587347Y-133395490D02*
X148644490Y-133509776D01*
X148644490Y-133509776D02*
X148644490Y-133738348D01*
X148644490Y-133738348D02*
X148587347Y-133852633D01*
X147901633Y-133338348D02*
X147844490Y-133452633D01*
X147844490Y-133452633D02*
X147844490Y-133738348D01*
X147844490Y-133738348D02*
X147901633Y-133852633D01*
X147901633Y-133852633D02*
X148015918Y-133909776D01*
X148015918Y-133909776D02*
X148130204Y-133909776D01*
X148130204Y-133909776D02*
X148244490Y-133852633D01*
X148244490Y-133852633D02*
X148301633Y-133738348D01*
X148301633Y-133738348D02*
X148301633Y-133452633D01*
X148301633Y-133452633D02*
X148358775Y-133338348D01*
X148644490Y-132766919D02*
X147844490Y-132766919D01*
X148530204Y-132766919D02*
X148587347Y-132709776D01*
X148587347Y-132709776D02*
X148644490Y-132595491D01*
X148644490Y-132595491D02*
X148644490Y-132424062D01*
X148644490Y-132424062D02*
X148587347Y-132309776D01*
X148587347Y-132309776D02*
X148473061Y-132252634D01*
X148473061Y-132252634D02*
X147844490Y-132252634D01*
X147901633Y-131224062D02*
X147844490Y-131338348D01*
X147844490Y-131338348D02*
X147844490Y-131566920D01*
X147844490Y-131566920D02*
X147901633Y-131681205D01*
X147901633Y-131681205D02*
X148015918Y-131738348D01*
X148015918Y-131738348D02*
X148473061Y-131738348D01*
X148473061Y-131738348D02*
X148587347Y-131681205D01*
X148587347Y-131681205D02*
X148644490Y-131566920D01*
X148644490Y-131566920D02*
X148644490Y-131338348D01*
X148644490Y-131338348D02*
X148587347Y-131224062D01*
X148587347Y-131224062D02*
X148473061Y-131166920D01*
X148473061Y-131166920D02*
X148358775Y-131166920D01*
X148358775Y-131166920D02*
X148244490Y-131738348D01*
X147844490Y-130481206D02*
X147901633Y-130595491D01*
X147901633Y-130595491D02*
X148015918Y-130652634D01*
X148015918Y-130652634D02*
X149044490Y-130652634D01*
X148644490Y-129281206D02*
X148644490Y-128824063D01*
X147844490Y-129109777D02*
X148873061Y-129109777D01*
X148873061Y-129109777D02*
X148987347Y-129052634D01*
X148987347Y-129052634D02*
X149044490Y-128938349D01*
X149044490Y-128938349D02*
X149044490Y-128824063D01*
X147844490Y-128252635D02*
X147901633Y-128366920D01*
X147901633Y-128366920D02*
X147958775Y-128424063D01*
X147958775Y-128424063D02*
X148073061Y-128481206D01*
X148073061Y-128481206D02*
X148415918Y-128481206D01*
X148415918Y-128481206D02*
X148530204Y-128424063D01*
X148530204Y-128424063D02*
X148587347Y-128366920D01*
X148587347Y-128366920D02*
X148644490Y-128252635D01*
X148644490Y-128252635D02*
X148644490Y-128081206D01*
X148644490Y-128081206D02*
X148587347Y-127966920D01*
X148587347Y-127966920D02*
X148530204Y-127909778D01*
X148530204Y-127909778D02*
X148415918Y-127852635D01*
X148415918Y-127852635D02*
X148073061Y-127852635D01*
X148073061Y-127852635D02*
X147958775Y-127909778D01*
X147958775Y-127909778D02*
X147901633Y-127966920D01*
X147901633Y-127966920D02*
X147844490Y-128081206D01*
X147844490Y-128081206D02*
X147844490Y-128252635D01*
X147844490Y-127338349D02*
X148644490Y-127338349D01*
X148415918Y-127338349D02*
X148530204Y-127281206D01*
X148530204Y-127281206D02*
X148587347Y-127224064D01*
X148587347Y-127224064D02*
X148644490Y-127109778D01*
X148644490Y-127109778D02*
X148644490Y-126995492D01*
X148644490Y-125795492D02*
X147844490Y-125509778D01*
X147844490Y-125509778D02*
X148644490Y-125224063D01*
X147844490Y-124138349D02*
X147844490Y-124824063D01*
X147844490Y-124481206D02*
X149044490Y-124481206D01*
X149044490Y-124481206D02*
X148873061Y-124595492D01*
X148873061Y-124595492D02*
X148758775Y-124709777D01*
X148758775Y-124709777D02*
X148701633Y-124824063D01*
X147730204Y-123909778D02*
X147730204Y-122995492D01*
X149044490Y-122481206D02*
X149044490Y-122366920D01*
X149044490Y-122366920D02*
X148987347Y-122252634D01*
X148987347Y-122252634D02*
X148930204Y-122195492D01*
X148930204Y-122195492D02*
X148815918Y-122138349D01*
X148815918Y-122138349D02*
X148587347Y-122081206D01*
X148587347Y-122081206D02*
X148301633Y-122081206D01*
X148301633Y-122081206D02*
X148073061Y-122138349D01*
X148073061Y-122138349D02*
X147958775Y-122195492D01*
X147958775Y-122195492D02*
X147901633Y-122252634D01*
X147901633Y-122252634D02*
X147844490Y-122366920D01*
X147844490Y-122366920D02*
X147844490Y-122481206D01*
X147844490Y-122481206D02*
X147901633Y-122595492D01*
X147901633Y-122595492D02*
X147958775Y-122652634D01*
X147958775Y-122652634D02*
X148073061Y-122709777D01*
X148073061Y-122709777D02*
X148301633Y-122766920D01*
X148301633Y-122766920D02*
X148587347Y-122766920D01*
X148587347Y-122766920D02*
X148815918Y-122709777D01*
X148815918Y-122709777D02*
X148930204Y-122652634D01*
X148930204Y-122652634D02*
X148987347Y-122595492D01*
X148987347Y-122595492D02*
X149044490Y-122481206D01*
X147730204Y-121852635D02*
X147730204Y-120938349D01*
X149044490Y-120424063D02*
X149044490Y-120309777D01*
X149044490Y-120309777D02*
X148987347Y-120195491D01*
X148987347Y-120195491D02*
X148930204Y-120138349D01*
X148930204Y-120138349D02*
X148815918Y-120081206D01*
X148815918Y-120081206D02*
X148587347Y-120024063D01*
X148587347Y-120024063D02*
X148301633Y-120024063D01*
X148301633Y-120024063D02*
X148073061Y-120081206D01*
X148073061Y-120081206D02*
X147958775Y-120138349D01*
X147958775Y-120138349D02*
X147901633Y-120195491D01*
X147901633Y-120195491D02*
X147844490Y-120309777D01*
X147844490Y-120309777D02*
X147844490Y-120424063D01*
X147844490Y-120424063D02*
X147901633Y-120538349D01*
X147901633Y-120538349D02*
X147958775Y-120595491D01*
X147958775Y-120595491D02*
X148073061Y-120652634D01*
X148073061Y-120652634D02*
X148301633Y-120709777D01*
X148301633Y-120709777D02*
X148587347Y-120709777D01*
X148587347Y-120709777D02*
X148815918Y-120652634D01*
X148815918Y-120652634D02*
X148930204Y-120595491D01*
X148930204Y-120595491D02*
X148987347Y-120538349D01*
X148987347Y-120538349D02*
X149044490Y-120424063D01*
X147844490Y-118595491D02*
X148644490Y-118595491D01*
X148530204Y-118595491D02*
X148587347Y-118538348D01*
X148587347Y-118538348D02*
X148644490Y-118424063D01*
X148644490Y-118424063D02*
X148644490Y-118252634D01*
X148644490Y-118252634D02*
X148587347Y-118138348D01*
X148587347Y-118138348D02*
X148473061Y-118081206D01*
X148473061Y-118081206D02*
X147844490Y-118081206D01*
X148473061Y-118081206D02*
X148587347Y-118024063D01*
X148587347Y-118024063D02*
X148644490Y-117909777D01*
X148644490Y-117909777D02*
X148644490Y-117738348D01*
X148644490Y-117738348D02*
X148587347Y-117624063D01*
X148587347Y-117624063D02*
X148473061Y-117566920D01*
X148473061Y-117566920D02*
X147844490Y-117566920D01*
X147844490Y-116995491D02*
X149044490Y-116995491D01*
X148301633Y-116881206D02*
X147844490Y-116538348D01*
X148644490Y-116538348D02*
X148187347Y-116995491D01*
X147730204Y-116309777D02*
X147730204Y-115395491D01*
X147844490Y-115109776D02*
X148644490Y-115109776D01*
X149044490Y-115109776D02*
X148987347Y-115166919D01*
X148987347Y-115166919D02*
X148930204Y-115109776D01*
X148930204Y-115109776D02*
X148987347Y-115052633D01*
X148987347Y-115052633D02*
X149044490Y-115109776D01*
X149044490Y-115109776D02*
X148930204Y-115109776D01*
M02*
