G04 #@! TF.GenerationSoftware,KiCad,Pcbnew,8.0.5*
G04 #@! TF.CreationDate,2025-04-09T15:30:52+10:00*
G04 #@! TF.ProjectId,recurBOY,72656375-7242-44f5-992e-6b696361645f,v1_1_0*
G04 #@! TF.SameCoordinates,Original*
G04 #@! TF.FileFunction,Soldermask,Bot*
G04 #@! TF.FilePolarity,Negative*
%FSLAX46Y46*%
G04 Gerber Fmt 4.6, Leading zero omitted, Abs format (unit mm)*
G04 Created by KiCad (PCBNEW 8.0.5) date 2025-04-09 15:30:52*
%MOMM*%
%LPD*%
G01*
G04 APERTURE LIST*
G04 Aperture macros list*
%AMRoundRect*
0 Rectangle with rounded corners*
0 $1 Rounding radius*
0 $2 $3 $4 $5 $6 $7 $8 $9 X,Y pos of 4 corners*
0 Add a 4 corners polygon primitive as box body*
4,1,4,$2,$3,$4,$5,$6,$7,$8,$9,$2,$3,0*
0 Add four circle primitives for the rounded corners*
1,1,$1+$1,$2,$3*
1,1,$1+$1,$4,$5*
1,1,$1+$1,$6,$7*
1,1,$1+$1,$8,$9*
0 Add four rect primitives between the rounded corners*
20,1,$1+$1,$2,$3,$4,$5,0*
20,1,$1+$1,$4,$5,$6,$7,0*
20,1,$1+$1,$6,$7,$8,$9,0*
20,1,$1+$1,$8,$9,$2,$3,0*%
G04 Aperture macros list end*
%ADD10C,2.530000*%
%ADD11RoundRect,0.200000X0.965000X0.915000X-0.965000X0.915000X-0.965000X-0.915000X0.965000X-0.915000X0*%
%ADD12O,2.100000X2.100000*%
%ADD13RoundRect,0.200000X-0.850000X-0.850000X0.850000X-0.850000X0.850000X0.850000X-0.850000X0.850000X0*%
%ADD14C,3.400000*%
%ADD15RoundRect,0.200000X0.850000X-0.850000X0.850000X0.850000X-0.850000X0.850000X-0.850000X-0.850000X0*%
%ADD16RoundRect,0.200000X-0.850000X0.850000X-0.850000X-0.850000X0.850000X-0.850000X0.850000X0.850000X0*%
%ADD17RoundRect,0.200000X-1.200000X-0.800000X1.200000X-0.800000X1.200000X0.800000X-1.200000X0.800000X0*%
%ADD18O,2.800000X2.000000*%
%ADD19O,2.000000X2.000000*%
%ADD20C,2.000000*%
%ADD21C,2.200000*%
%ADD22RoundRect,0.200000X0.900000X-0.900000X0.900000X0.900000X-0.900000X0.900000X-0.900000X-0.900000X0*%
%ADD23RoundRect,0.850000X0.850000X-1.350000X0.850000X1.350000X-0.850000X1.350000X-0.850000X-1.350000X0*%
%ADD24RoundRect,0.200000X0.800000X-1.200000X0.800000X1.200000X-0.800000X1.200000X-0.800000X-1.200000X0*%
%ADD25O,2.000000X2.800000*%
%ADD26C,2.950000*%
%ADD27O,3.448000X2.250000*%
%ADD28C,2.100000*%
%ADD29RoundRect,0.308824X-0.741176X-0.741176X0.741176X-0.741176X0.741176X0.741176X-0.741176X0.741176X0*%
%ADD30RoundRect,0.200000X-0.800000X0.800000X-0.800000X-0.800000X0.800000X-0.800000X0.800000X0.800000X0*%
G04 APERTURE END LIST*
D10*
X115600000Y-41100000D03*
X115600000Y-49400000D03*
D11*
X115600000Y-38000000D03*
D10*
X136900000Y-41000000D03*
X136900000Y-49300000D03*
D11*
X136900000Y-37900000D03*
D10*
X172900000Y-41100000D03*
X172900000Y-49400000D03*
D11*
X172900000Y-38000000D03*
D10*
X194200000Y-41000000D03*
X194200000Y-49300000D03*
D11*
X194200000Y-37900000D03*
D12*
X128600000Y-79280000D03*
X128600000Y-76740000D03*
X128600000Y-74200000D03*
X128600000Y-71660000D03*
X128600000Y-69120000D03*
X128600000Y-66580000D03*
X128600000Y-64040000D03*
D13*
X128600000Y-61500000D03*
D14*
X180300000Y-85500000D03*
X180300000Y-55500000D03*
X129300000Y-85500000D03*
X129300000Y-55500000D03*
D12*
X136340000Y-55400000D03*
D15*
X133800000Y-55400000D03*
D12*
X133740000Y-63040000D03*
X133740000Y-60500000D03*
X136280000Y-63040000D03*
X136280000Y-60500000D03*
X138820000Y-63040000D03*
X138820000Y-60500000D03*
X141360000Y-63040000D03*
X141360000Y-60500000D03*
X143900000Y-63040000D03*
X143900000Y-60500000D03*
X146440000Y-63040000D03*
X146440000Y-60500000D03*
X148980000Y-63040000D03*
X148980000Y-60500000D03*
X151520000Y-63040000D03*
X151520000Y-60500000D03*
X154060000Y-63040000D03*
X154060000Y-60500000D03*
X156600000Y-63040000D03*
X156600000Y-60500000D03*
X159140000Y-63040000D03*
X159140000Y-60500000D03*
X161680000Y-63040000D03*
X161680000Y-60500000D03*
X164220000Y-63040000D03*
X164220000Y-60500000D03*
X166760000Y-63040000D03*
X166760000Y-60500000D03*
X169300000Y-63040000D03*
X169300000Y-60500000D03*
X171840000Y-63040000D03*
X171840000Y-60500000D03*
X174380000Y-63040000D03*
X174380000Y-60500000D03*
X176920000Y-63040000D03*
X176920000Y-60500000D03*
X179460000Y-63040000D03*
X179460000Y-60500000D03*
X182000000Y-63040000D03*
D16*
X182000000Y-60500000D03*
D17*
X171900000Y-104050000D03*
D18*
X171900000Y-106850000D03*
X171900000Y-110550000D03*
X182270000Y-104050000D03*
X182300000Y-106850000D03*
X182300000Y-110550000D03*
D19*
X113280000Y-53800000D03*
D20*
X120900000Y-53800000D03*
D19*
X143830000Y-49300000D03*
D20*
X151450000Y-49300000D03*
D19*
X165970000Y-49200000D03*
D20*
X158350000Y-49200000D03*
D19*
X196220000Y-54000000D03*
D20*
X188600000Y-54000000D03*
D21*
X115800000Y-69550000D03*
X113300000Y-69550000D03*
D22*
X110800000Y-69550000D03*
D23*
X117700000Y-62550000D03*
X108900000Y-62550000D03*
D21*
X116100000Y-86450000D03*
X113600000Y-86450000D03*
D22*
X111100000Y-86450000D03*
D23*
X118000000Y-79450000D03*
X109200000Y-79450000D03*
D21*
X199700000Y-69850000D03*
X197200000Y-69850000D03*
D22*
X194700000Y-69850000D03*
D23*
X201600000Y-62850000D03*
X192800000Y-62850000D03*
D21*
X199800000Y-86400000D03*
X197300000Y-86400000D03*
D22*
X194800000Y-86400000D03*
D23*
X201700000Y-79400000D03*
X192900000Y-79400000D03*
D24*
X149081250Y-99000000D03*
D25*
X151621250Y-99000000D03*
X154161250Y-99000000D03*
X156701250Y-99000000D03*
X159241250Y-99000000D03*
X161781250Y-99000000D03*
X164321250Y-99000000D03*
X166861250Y-99000000D03*
X166861250Y-91380000D03*
X164321250Y-91380000D03*
X161781250Y-91380000D03*
X159241250Y-91380000D03*
X156701250Y-91380000D03*
X154161250Y-91380000D03*
X151621250Y-91380000D03*
X149081250Y-91380000D03*
D14*
X160050000Y-41100000D03*
X149750000Y-41100000D03*
D26*
X154900000Y-39500000D03*
D27*
X191900000Y-125700000D03*
X179400000Y-125700000D03*
X191900000Y-120700000D03*
X179400000Y-120700000D03*
X121040000Y-111200000D03*
X108540000Y-111200000D03*
X121040000Y-106200000D03*
X108540000Y-106200000D03*
X134640000Y-125700000D03*
X122140000Y-125700000D03*
X134640000Y-120700000D03*
X122140000Y-120700000D03*
X148140000Y-111200000D03*
X135640000Y-111200000D03*
X148140000Y-106200000D03*
X135640000Y-106200000D03*
X161840000Y-125700000D03*
X149340000Y-125700000D03*
X161840000Y-120700000D03*
X149340000Y-120700000D03*
D28*
X198540000Y-97800000D03*
X196000000Y-97800000D03*
X198540000Y-100340000D03*
X196000000Y-100340000D03*
X198540000Y-102880000D03*
X196000000Y-102880000D03*
X198540000Y-105420000D03*
X196000000Y-105420000D03*
X198540000Y-107960000D03*
X196000000Y-107960000D03*
X198540000Y-110500000D03*
X196000000Y-110500000D03*
X198540000Y-113040000D03*
X196000000Y-113040000D03*
X198540000Y-115580000D03*
D29*
X196000000Y-115580000D03*
D19*
X187200000Y-64030000D03*
D30*
X187200000Y-58950000D03*
D19*
X201300000Y-49580000D03*
D30*
X201300000Y-44500000D03*
D19*
X183150000Y-49280000D03*
D30*
X183150000Y-44200000D03*
D19*
X165900000Y-42680000D03*
D30*
X165900000Y-37600000D03*
D19*
X126500000Y-49130000D03*
D30*
X126500000Y-44050000D03*
D19*
X143500000Y-42580000D03*
D30*
X143500000Y-37500000D03*
D19*
X122800000Y-63430000D03*
D30*
X122800000Y-58350000D03*
D19*
X108700000Y-48980000D03*
D30*
X108700000Y-43900000D03*
D20*
X129600000Y-97400000D03*
X134600000Y-97400000D03*
M02*
