G04 #@! TF.GenerationSoftware,KiCad,Pcbnew,8.0.5*
G04 #@! TF.CreationDate,2025-04-09T15:30:52+10:00*
G04 #@! TF.ProjectId,recurBOY,72656375-7242-44f5-992e-6b696361645f,v1_1_0*
G04 #@! TF.SameCoordinates,Original*
G04 #@! TF.FileFunction,Legend,Bot*
G04 #@! TF.FilePolarity,Positive*
%FSLAX46Y46*%
G04 Gerber Fmt 4.6, Leading zero omitted, Abs format (unit mm)*
G04 Created by KiCad (PCBNEW 8.0.5) date 2025-04-09 15:30:52*
%MOMM*%
%LPD*%
G01*
G04 APERTURE LIST*
%ADD10C,0.300000*%
%ADD11C,0.500000*%
%ADD12C,0.150000*%
%ADD13C,0.010000*%
%ADD14C,0.120000*%
G04 APERTURE END LIST*
D10*
X173499999Y-56539542D02*
X173499999Y-57396685D01*
X173499999Y-57396685D02*
X173557142Y-57568114D01*
X173557142Y-57568114D02*
X173671428Y-57682400D01*
X173671428Y-57682400D02*
X173842856Y-57739542D01*
X173842856Y-57739542D02*
X173957142Y-57739542D01*
X172757142Y-57053828D02*
X172871427Y-56996685D01*
X172871427Y-56996685D02*
X172928570Y-56939542D01*
X172928570Y-56939542D02*
X172985713Y-56825257D01*
X172985713Y-56825257D02*
X172985713Y-56768114D01*
X172985713Y-56768114D02*
X172928570Y-56653828D01*
X172928570Y-56653828D02*
X172871427Y-56596685D01*
X172871427Y-56596685D02*
X172757142Y-56539542D01*
X172757142Y-56539542D02*
X172528570Y-56539542D01*
X172528570Y-56539542D02*
X172414285Y-56596685D01*
X172414285Y-56596685D02*
X172357142Y-56653828D01*
X172357142Y-56653828D02*
X172299999Y-56768114D01*
X172299999Y-56768114D02*
X172299999Y-56825257D01*
X172299999Y-56825257D02*
X172357142Y-56939542D01*
X172357142Y-56939542D02*
X172414285Y-56996685D01*
X172414285Y-56996685D02*
X172528570Y-57053828D01*
X172528570Y-57053828D02*
X172757142Y-57053828D01*
X172757142Y-57053828D02*
X172871427Y-57110971D01*
X172871427Y-57110971D02*
X172928570Y-57168114D01*
X172928570Y-57168114D02*
X172985713Y-57282400D01*
X172985713Y-57282400D02*
X172985713Y-57510971D01*
X172985713Y-57510971D02*
X172928570Y-57625257D01*
X172928570Y-57625257D02*
X172871427Y-57682400D01*
X172871427Y-57682400D02*
X172757142Y-57739542D01*
X172757142Y-57739542D02*
X172528570Y-57739542D01*
X172528570Y-57739542D02*
X172414285Y-57682400D01*
X172414285Y-57682400D02*
X172357142Y-57625257D01*
X172357142Y-57625257D02*
X172299999Y-57510971D01*
X172299999Y-57510971D02*
X172299999Y-57282400D01*
X172299999Y-57282400D02*
X172357142Y-57168114D01*
X172357142Y-57168114D02*
X172414285Y-57110971D01*
X172414285Y-57110971D02*
X172528570Y-57053828D01*
D11*
X127600000Y-94763285D02*
X123790476Y-94763285D01*
X123314285Y-89763285D02*
X122361904Y-89049000D01*
X122361904Y-89049000D02*
X121409523Y-89763285D01*
X113314285Y-94287095D02*
X116171428Y-94287095D01*
X114742856Y-94287095D02*
X114742856Y-89287095D01*
X114742856Y-89287095D02*
X115219047Y-90001380D01*
X115219047Y-90001380D02*
X115695237Y-90477571D01*
X115695237Y-90477571D02*
X116171428Y-90715666D01*
X110219046Y-89287095D02*
X109742856Y-89287095D01*
X109742856Y-89287095D02*
X109266665Y-89525190D01*
X109266665Y-89525190D02*
X109028570Y-89763285D01*
X109028570Y-89763285D02*
X108790475Y-90239476D01*
X108790475Y-90239476D02*
X108552380Y-91191857D01*
X108552380Y-91191857D02*
X108552380Y-92382333D01*
X108552380Y-92382333D02*
X108790475Y-93334714D01*
X108790475Y-93334714D02*
X109028570Y-93810904D01*
X109028570Y-93810904D02*
X109266665Y-94049000D01*
X109266665Y-94049000D02*
X109742856Y-94287095D01*
X109742856Y-94287095D02*
X110219046Y-94287095D01*
X110219046Y-94287095D02*
X110695237Y-94049000D01*
X110695237Y-94049000D02*
X110933332Y-93810904D01*
X110933332Y-93810904D02*
X111171427Y-93334714D01*
X111171427Y-93334714D02*
X111409523Y-92382333D01*
X111409523Y-92382333D02*
X111409523Y-91191857D01*
X111409523Y-91191857D02*
X111171427Y-90239476D01*
X111171427Y-90239476D02*
X110933332Y-89763285D01*
X110933332Y-89763285D02*
X110695237Y-89525190D01*
X110695237Y-89525190D02*
X110219046Y-89287095D01*
D10*
X130299999Y-53439542D02*
X130299999Y-54296685D01*
X130299999Y-54296685D02*
X130357142Y-54468114D01*
X130357142Y-54468114D02*
X130471428Y-54582400D01*
X130471428Y-54582400D02*
X130642856Y-54639542D01*
X130642856Y-54639542D02*
X130757142Y-54639542D01*
X129214285Y-53439542D02*
X129442856Y-53439542D01*
X129442856Y-53439542D02*
X129557142Y-53496685D01*
X129557142Y-53496685D02*
X129614285Y-53553828D01*
X129614285Y-53553828D02*
X129728570Y-53725257D01*
X129728570Y-53725257D02*
X129785713Y-53953828D01*
X129785713Y-53953828D02*
X129785713Y-54410971D01*
X129785713Y-54410971D02*
X129728570Y-54525257D01*
X129728570Y-54525257D02*
X129671427Y-54582400D01*
X129671427Y-54582400D02*
X129557142Y-54639542D01*
X129557142Y-54639542D02*
X129328570Y-54639542D01*
X129328570Y-54639542D02*
X129214285Y-54582400D01*
X129214285Y-54582400D02*
X129157142Y-54525257D01*
X129157142Y-54525257D02*
X129099999Y-54410971D01*
X129099999Y-54410971D02*
X129099999Y-54125257D01*
X129099999Y-54125257D02*
X129157142Y-54010971D01*
X129157142Y-54010971D02*
X129214285Y-53953828D01*
X129214285Y-53953828D02*
X129328570Y-53896685D01*
X129328570Y-53896685D02*
X129557142Y-53896685D01*
X129557142Y-53896685D02*
X129671427Y-53953828D01*
X129671427Y-53953828D02*
X129728570Y-54010971D01*
X129728570Y-54010971D02*
X129785713Y-54125257D01*
X126885714Y-97078328D02*
X126885714Y-98078328D01*
X127528571Y-97078328D02*
X127528571Y-97864042D01*
X127528571Y-97864042D02*
X127457142Y-98006900D01*
X127457142Y-98006900D02*
X127314285Y-98078328D01*
X127314285Y-98078328D02*
X127099999Y-98078328D01*
X127099999Y-98078328D02*
X126957142Y-98006900D01*
X126957142Y-98006900D02*
X126885714Y-97935471D01*
X126171428Y-97078328D02*
X126171428Y-98078328D01*
X126171428Y-97221185D02*
X126099999Y-97149757D01*
X126099999Y-97149757D02*
X125957142Y-97078328D01*
X125957142Y-97078328D02*
X125742856Y-97078328D01*
X125742856Y-97078328D02*
X125599999Y-97149757D01*
X125599999Y-97149757D02*
X125528571Y-97292614D01*
X125528571Y-97292614D02*
X125528571Y-98078328D01*
X124171428Y-98078328D02*
X124171428Y-96578328D01*
X124171428Y-98006900D02*
X124314285Y-98078328D01*
X124314285Y-98078328D02*
X124599999Y-98078328D01*
X124599999Y-98078328D02*
X124742856Y-98006900D01*
X124742856Y-98006900D02*
X124814285Y-97935471D01*
X124814285Y-97935471D02*
X124885713Y-97792614D01*
X124885713Y-97792614D02*
X124885713Y-97364042D01*
X124885713Y-97364042D02*
X124814285Y-97221185D01*
X124814285Y-97221185D02*
X124742856Y-97149757D01*
X124742856Y-97149757D02*
X124599999Y-97078328D01*
X124599999Y-97078328D02*
X124314285Y-97078328D01*
X124314285Y-97078328D02*
X124171428Y-97149757D01*
X122885713Y-98006900D02*
X123028570Y-98078328D01*
X123028570Y-98078328D02*
X123314285Y-98078328D01*
X123314285Y-98078328D02*
X123457142Y-98006900D01*
X123457142Y-98006900D02*
X123528570Y-97864042D01*
X123528570Y-97864042D02*
X123528570Y-97292614D01*
X123528570Y-97292614D02*
X123457142Y-97149757D01*
X123457142Y-97149757D02*
X123314285Y-97078328D01*
X123314285Y-97078328D02*
X123028570Y-97078328D01*
X123028570Y-97078328D02*
X122885713Y-97149757D01*
X122885713Y-97149757D02*
X122814285Y-97292614D01*
X122814285Y-97292614D02*
X122814285Y-97435471D01*
X122814285Y-97435471D02*
X123528570Y-97578328D01*
X122171428Y-98078328D02*
X122171428Y-97078328D01*
X122171428Y-97364042D02*
X122099999Y-97221185D01*
X122099999Y-97221185D02*
X122028571Y-97149757D01*
X122028571Y-97149757D02*
X121885713Y-97078328D01*
X121885713Y-97078328D02*
X121742856Y-97078328D01*
X121314285Y-98006900D02*
X121171428Y-98078328D01*
X121171428Y-98078328D02*
X120885714Y-98078328D01*
X120885714Y-98078328D02*
X120742857Y-98006900D01*
X120742857Y-98006900D02*
X120671428Y-97864042D01*
X120671428Y-97864042D02*
X120671428Y-97792614D01*
X120671428Y-97792614D02*
X120742857Y-97649757D01*
X120742857Y-97649757D02*
X120885714Y-97578328D01*
X120885714Y-97578328D02*
X121100000Y-97578328D01*
X121100000Y-97578328D02*
X121242857Y-97506900D01*
X121242857Y-97506900D02*
X121314285Y-97364042D01*
X121314285Y-97364042D02*
X121314285Y-97292614D01*
X121314285Y-97292614D02*
X121242857Y-97149757D01*
X121242857Y-97149757D02*
X121100000Y-97078328D01*
X121100000Y-97078328D02*
X120885714Y-97078328D01*
X120885714Y-97078328D02*
X120742857Y-97149757D01*
X119385714Y-98006900D02*
X119528571Y-98078328D01*
X119528571Y-98078328D02*
X119814285Y-98078328D01*
X119814285Y-98078328D02*
X119957142Y-98006900D01*
X119957142Y-98006900D02*
X120028571Y-97935471D01*
X120028571Y-97935471D02*
X120099999Y-97792614D01*
X120099999Y-97792614D02*
X120099999Y-97364042D01*
X120099999Y-97364042D02*
X120028571Y-97221185D01*
X120028571Y-97221185D02*
X119957142Y-97149757D01*
X119957142Y-97149757D02*
X119814285Y-97078328D01*
X119814285Y-97078328D02*
X119528571Y-97078328D01*
X119528571Y-97078328D02*
X119385714Y-97149757D01*
X118528571Y-98078328D02*
X118671428Y-98006900D01*
X118671428Y-98006900D02*
X118742857Y-97935471D01*
X118742857Y-97935471D02*
X118814285Y-97792614D01*
X118814285Y-97792614D02*
X118814285Y-97364042D01*
X118814285Y-97364042D02*
X118742857Y-97221185D01*
X118742857Y-97221185D02*
X118671428Y-97149757D01*
X118671428Y-97149757D02*
X118528571Y-97078328D01*
X118528571Y-97078328D02*
X118314285Y-97078328D01*
X118314285Y-97078328D02*
X118171428Y-97149757D01*
X118171428Y-97149757D02*
X118100000Y-97221185D01*
X118100000Y-97221185D02*
X118028571Y-97364042D01*
X118028571Y-97364042D02*
X118028571Y-97792614D01*
X118028571Y-97792614D02*
X118100000Y-97935471D01*
X118100000Y-97935471D02*
X118171428Y-98006900D01*
X118171428Y-98006900D02*
X118314285Y-98078328D01*
X118314285Y-98078328D02*
X118528571Y-98078328D01*
X117385714Y-98078328D02*
X117385714Y-97078328D01*
X117385714Y-97364042D02*
X117314285Y-97221185D01*
X117314285Y-97221185D02*
X117242857Y-97149757D01*
X117242857Y-97149757D02*
X117099999Y-97078328D01*
X117099999Y-97078328D02*
X116957142Y-97078328D01*
X115885714Y-98006900D02*
X116028571Y-98078328D01*
X116028571Y-98078328D02*
X116314286Y-98078328D01*
X116314286Y-98078328D02*
X116457143Y-98006900D01*
X116457143Y-98006900D02*
X116528571Y-97864042D01*
X116528571Y-97864042D02*
X116528571Y-97292614D01*
X116528571Y-97292614D02*
X116457143Y-97149757D01*
X116457143Y-97149757D02*
X116314286Y-97078328D01*
X116314286Y-97078328D02*
X116028571Y-97078328D01*
X116028571Y-97078328D02*
X115885714Y-97149757D01*
X115885714Y-97149757D02*
X115814286Y-97292614D01*
X115814286Y-97292614D02*
X115814286Y-97435471D01*
X115814286Y-97435471D02*
X116528571Y-97578328D01*
X115242857Y-98006900D02*
X115100000Y-98078328D01*
X115100000Y-98078328D02*
X114814286Y-98078328D01*
X114814286Y-98078328D02*
X114671429Y-98006900D01*
X114671429Y-98006900D02*
X114600000Y-97864042D01*
X114600000Y-97864042D02*
X114600000Y-97792614D01*
X114600000Y-97792614D02*
X114671429Y-97649757D01*
X114671429Y-97649757D02*
X114814286Y-97578328D01*
X114814286Y-97578328D02*
X115028572Y-97578328D01*
X115028572Y-97578328D02*
X115171429Y-97506900D01*
X115171429Y-97506900D02*
X115242857Y-97364042D01*
X115242857Y-97364042D02*
X115242857Y-97292614D01*
X115242857Y-97292614D02*
X115171429Y-97149757D01*
X115171429Y-97149757D02*
X115028572Y-97078328D01*
X115028572Y-97078328D02*
X114814286Y-97078328D01*
X114814286Y-97078328D02*
X114671429Y-97149757D01*
X113957143Y-97935471D02*
X113885714Y-98006900D01*
X113885714Y-98006900D02*
X113957143Y-98078328D01*
X113957143Y-98078328D02*
X114028571Y-98006900D01*
X114028571Y-98006900D02*
X113957143Y-97935471D01*
X113957143Y-97935471D02*
X113957143Y-98078328D01*
X113314285Y-98006900D02*
X113171428Y-98078328D01*
X113171428Y-98078328D02*
X112885714Y-98078328D01*
X112885714Y-98078328D02*
X112742857Y-98006900D01*
X112742857Y-98006900D02*
X112671428Y-97864042D01*
X112671428Y-97864042D02*
X112671428Y-97792614D01*
X112671428Y-97792614D02*
X112742857Y-97649757D01*
X112742857Y-97649757D02*
X112885714Y-97578328D01*
X112885714Y-97578328D02*
X113100000Y-97578328D01*
X113100000Y-97578328D02*
X113242857Y-97506900D01*
X113242857Y-97506900D02*
X113314285Y-97364042D01*
X113314285Y-97364042D02*
X113314285Y-97292614D01*
X113314285Y-97292614D02*
X113242857Y-97149757D01*
X113242857Y-97149757D02*
X113100000Y-97078328D01*
X113100000Y-97078328D02*
X112885714Y-97078328D01*
X112885714Y-97078328D02*
X112742857Y-97149757D01*
X112028571Y-98078328D02*
X112028571Y-96578328D01*
X111385714Y-98078328D02*
X111385714Y-97292614D01*
X111385714Y-97292614D02*
X111457142Y-97149757D01*
X111457142Y-97149757D02*
X111599999Y-97078328D01*
X111599999Y-97078328D02*
X111814285Y-97078328D01*
X111814285Y-97078328D02*
X111957142Y-97149757D01*
X111957142Y-97149757D02*
X112028571Y-97221185D01*
X110457142Y-98078328D02*
X110599999Y-98006900D01*
X110599999Y-98006900D02*
X110671428Y-97935471D01*
X110671428Y-97935471D02*
X110742856Y-97792614D01*
X110742856Y-97792614D02*
X110742856Y-97364042D01*
X110742856Y-97364042D02*
X110671428Y-97221185D01*
X110671428Y-97221185D02*
X110599999Y-97149757D01*
X110599999Y-97149757D02*
X110457142Y-97078328D01*
X110457142Y-97078328D02*
X110242856Y-97078328D01*
X110242856Y-97078328D02*
X110099999Y-97149757D01*
X110099999Y-97149757D02*
X110028571Y-97221185D01*
X110028571Y-97221185D02*
X109957142Y-97364042D01*
X109957142Y-97364042D02*
X109957142Y-97792614D01*
X109957142Y-97792614D02*
X110028571Y-97935471D01*
X110028571Y-97935471D02*
X110099999Y-98006900D01*
X110099999Y-98006900D02*
X110242856Y-98078328D01*
X110242856Y-98078328D02*
X110457142Y-98078328D01*
X109314285Y-97078328D02*
X109314285Y-98578328D01*
X109314285Y-97149757D02*
X109171428Y-97078328D01*
X109171428Y-97078328D02*
X108885713Y-97078328D01*
X108885713Y-97078328D02*
X108742856Y-97149757D01*
X108742856Y-97149757D02*
X108671428Y-97221185D01*
X108671428Y-97221185D02*
X108599999Y-97364042D01*
X108599999Y-97364042D02*
X108599999Y-97792614D01*
X108599999Y-97792614D02*
X108671428Y-97935471D01*
X108671428Y-97935471D02*
X108742856Y-98006900D01*
X108742856Y-98006900D02*
X108885713Y-98078328D01*
X108885713Y-98078328D02*
X109171428Y-98078328D01*
X109171428Y-98078328D02*
X109314285Y-98006900D01*
D12*
X199919048Y-133254819D02*
X199919048Y-133969104D01*
X199919048Y-133969104D02*
X199966667Y-134111961D01*
X199966667Y-134111961D02*
X200061905Y-134207200D01*
X200061905Y-134207200D02*
X200204762Y-134254819D01*
X200204762Y-134254819D02*
X200300000Y-134254819D01*
X198966667Y-134254819D02*
X199442857Y-134254819D01*
X199442857Y-134254819D02*
X199442857Y-133254819D01*
X198061905Y-134159580D02*
X198109524Y-134207200D01*
X198109524Y-134207200D02*
X198252381Y-134254819D01*
X198252381Y-134254819D02*
X198347619Y-134254819D01*
X198347619Y-134254819D02*
X198490476Y-134207200D01*
X198490476Y-134207200D02*
X198585714Y-134111961D01*
X198585714Y-134111961D02*
X198633333Y-134016723D01*
X198633333Y-134016723D02*
X198680952Y-133826247D01*
X198680952Y-133826247D02*
X198680952Y-133683390D01*
X198680952Y-133683390D02*
X198633333Y-133492914D01*
X198633333Y-133492914D02*
X198585714Y-133397676D01*
X198585714Y-133397676D02*
X198490476Y-133302438D01*
X198490476Y-133302438D02*
X198347619Y-133254819D01*
X198347619Y-133254819D02*
X198252381Y-133254819D01*
X198252381Y-133254819D02*
X198109524Y-133302438D01*
X198109524Y-133302438D02*
X198061905Y-133350057D01*
X197347619Y-133254819D02*
X197347619Y-133969104D01*
X197347619Y-133969104D02*
X197395238Y-134111961D01*
X197395238Y-134111961D02*
X197490476Y-134207200D01*
X197490476Y-134207200D02*
X197633333Y-134254819D01*
X197633333Y-134254819D02*
X197728571Y-134254819D01*
X196395238Y-134254819D02*
X196871428Y-134254819D01*
X196871428Y-134254819D02*
X196871428Y-133254819D01*
X195490476Y-134159580D02*
X195538095Y-134207200D01*
X195538095Y-134207200D02*
X195680952Y-134254819D01*
X195680952Y-134254819D02*
X195776190Y-134254819D01*
X195776190Y-134254819D02*
X195919047Y-134207200D01*
X195919047Y-134207200D02*
X196014285Y-134111961D01*
X196014285Y-134111961D02*
X196061904Y-134016723D01*
X196061904Y-134016723D02*
X196109523Y-133826247D01*
X196109523Y-133826247D02*
X196109523Y-133683390D01*
X196109523Y-133683390D02*
X196061904Y-133492914D01*
X196061904Y-133492914D02*
X196014285Y-133397676D01*
X196014285Y-133397676D02*
X195919047Y-133302438D01*
X195919047Y-133302438D02*
X195776190Y-133254819D01*
X195776190Y-133254819D02*
X195680952Y-133254819D01*
X195680952Y-133254819D02*
X195538095Y-133302438D01*
X195538095Y-133302438D02*
X195490476Y-133350057D01*
X194776190Y-133254819D02*
X194776190Y-133969104D01*
X194776190Y-133969104D02*
X194823809Y-134111961D01*
X194823809Y-134111961D02*
X194919047Y-134207200D01*
X194919047Y-134207200D02*
X195061904Y-134254819D01*
X195061904Y-134254819D02*
X195157142Y-134254819D01*
X193823809Y-134254819D02*
X194299999Y-134254819D01*
X194299999Y-134254819D02*
X194299999Y-133254819D01*
X192919047Y-134159580D02*
X192966666Y-134207200D01*
X192966666Y-134207200D02*
X193109523Y-134254819D01*
X193109523Y-134254819D02*
X193204761Y-134254819D01*
X193204761Y-134254819D02*
X193347618Y-134207200D01*
X193347618Y-134207200D02*
X193442856Y-134111961D01*
X193442856Y-134111961D02*
X193490475Y-134016723D01*
X193490475Y-134016723D02*
X193538094Y-133826247D01*
X193538094Y-133826247D02*
X193538094Y-133683390D01*
X193538094Y-133683390D02*
X193490475Y-133492914D01*
X193490475Y-133492914D02*
X193442856Y-133397676D01*
X193442856Y-133397676D02*
X193347618Y-133302438D01*
X193347618Y-133302438D02*
X193204761Y-133254819D01*
X193204761Y-133254819D02*
X193109523Y-133254819D01*
X193109523Y-133254819D02*
X192966666Y-133302438D01*
X192966666Y-133302438D02*
X192919047Y-133350057D01*
X192204761Y-133254819D02*
X192204761Y-133969104D01*
X192204761Y-133969104D02*
X192252380Y-134111961D01*
X192252380Y-134111961D02*
X192347618Y-134207200D01*
X192347618Y-134207200D02*
X192490475Y-134254819D01*
X192490475Y-134254819D02*
X192585713Y-134254819D01*
X191252380Y-134254819D02*
X191728570Y-134254819D01*
X191728570Y-134254819D02*
X191728570Y-133254819D01*
X190347618Y-134159580D02*
X190395237Y-134207200D01*
X190395237Y-134207200D02*
X190538094Y-134254819D01*
X190538094Y-134254819D02*
X190633332Y-134254819D01*
X190633332Y-134254819D02*
X190776189Y-134207200D01*
X190776189Y-134207200D02*
X190871427Y-134111961D01*
X190871427Y-134111961D02*
X190919046Y-134016723D01*
X190919046Y-134016723D02*
X190966665Y-133826247D01*
X190966665Y-133826247D02*
X190966665Y-133683390D01*
X190966665Y-133683390D02*
X190919046Y-133492914D01*
X190919046Y-133492914D02*
X190871427Y-133397676D01*
X190871427Y-133397676D02*
X190776189Y-133302438D01*
X190776189Y-133302438D02*
X190633332Y-133254819D01*
X190633332Y-133254819D02*
X190538094Y-133254819D01*
X190538094Y-133254819D02*
X190395237Y-133302438D01*
X190395237Y-133302438D02*
X190347618Y-133350057D01*
X130924819Y-55066666D02*
X131639104Y-55066666D01*
X131639104Y-55066666D02*
X131781961Y-55019047D01*
X131781961Y-55019047D02*
X131877200Y-54923809D01*
X131877200Y-54923809D02*
X131924819Y-54780952D01*
X131924819Y-54780952D02*
X131924819Y-54685714D01*
X130924819Y-55971428D02*
X130924819Y-55780952D01*
X130924819Y-55780952D02*
X130972438Y-55685714D01*
X130972438Y-55685714D02*
X131020057Y-55638095D01*
X131020057Y-55638095D02*
X131162914Y-55542857D01*
X131162914Y-55542857D02*
X131353390Y-55495238D01*
X131353390Y-55495238D02*
X131734342Y-55495238D01*
X131734342Y-55495238D02*
X131829580Y-55542857D01*
X131829580Y-55542857D02*
X131877200Y-55590476D01*
X131877200Y-55590476D02*
X131924819Y-55685714D01*
X131924819Y-55685714D02*
X131924819Y-55876190D01*
X131924819Y-55876190D02*
X131877200Y-55971428D01*
X131877200Y-55971428D02*
X131829580Y-56019047D01*
X131829580Y-56019047D02*
X131734342Y-56066666D01*
X131734342Y-56066666D02*
X131496247Y-56066666D01*
X131496247Y-56066666D02*
X131401009Y-56019047D01*
X131401009Y-56019047D02*
X131353390Y-55971428D01*
X131353390Y-55971428D02*
X131305771Y-55876190D01*
X131305771Y-55876190D02*
X131305771Y-55685714D01*
X131305771Y-55685714D02*
X131353390Y-55590476D01*
X131353390Y-55590476D02*
X131401009Y-55542857D01*
X131401009Y-55542857D02*
X131496247Y-55495238D01*
X183784819Y-61436666D02*
X184499104Y-61436666D01*
X184499104Y-61436666D02*
X184641961Y-61389047D01*
X184641961Y-61389047D02*
X184737200Y-61293809D01*
X184737200Y-61293809D02*
X184784819Y-61150952D01*
X184784819Y-61150952D02*
X184784819Y-61055714D01*
X184213390Y-62055714D02*
X184165771Y-61960476D01*
X184165771Y-61960476D02*
X184118152Y-61912857D01*
X184118152Y-61912857D02*
X184022914Y-61865238D01*
X184022914Y-61865238D02*
X183975295Y-61865238D01*
X183975295Y-61865238D02*
X183880057Y-61912857D01*
X183880057Y-61912857D02*
X183832438Y-61960476D01*
X183832438Y-61960476D02*
X183784819Y-62055714D01*
X183784819Y-62055714D02*
X183784819Y-62246190D01*
X183784819Y-62246190D02*
X183832438Y-62341428D01*
X183832438Y-62341428D02*
X183880057Y-62389047D01*
X183880057Y-62389047D02*
X183975295Y-62436666D01*
X183975295Y-62436666D02*
X184022914Y-62436666D01*
X184022914Y-62436666D02*
X184118152Y-62389047D01*
X184118152Y-62389047D02*
X184165771Y-62341428D01*
X184165771Y-62341428D02*
X184213390Y-62246190D01*
X184213390Y-62246190D02*
X184213390Y-62055714D01*
X184213390Y-62055714D02*
X184261009Y-61960476D01*
X184261009Y-61960476D02*
X184308628Y-61912857D01*
X184308628Y-61912857D02*
X184403866Y-61865238D01*
X184403866Y-61865238D02*
X184594342Y-61865238D01*
X184594342Y-61865238D02*
X184689580Y-61912857D01*
X184689580Y-61912857D02*
X184737200Y-61960476D01*
X184737200Y-61960476D02*
X184784819Y-62055714D01*
X184784819Y-62055714D02*
X184784819Y-62246190D01*
X184784819Y-62246190D02*
X184737200Y-62341428D01*
X184737200Y-62341428D02*
X184689580Y-62389047D01*
X184689580Y-62389047D02*
X184594342Y-62436666D01*
X184594342Y-62436666D02*
X184403866Y-62436666D01*
X184403866Y-62436666D02*
X184308628Y-62389047D01*
X184308628Y-62389047D02*
X184261009Y-62341428D01*
X184261009Y-62341428D02*
X184213390Y-62246190D01*
X198079523Y-121134819D02*
X198079523Y-121849104D01*
X198079523Y-121849104D02*
X198127142Y-121991961D01*
X198127142Y-121991961D02*
X198222380Y-122087200D01*
X198222380Y-122087200D02*
X198365237Y-122134819D01*
X198365237Y-122134819D02*
X198460475Y-122134819D01*
X197079523Y-122134819D02*
X197650951Y-122134819D01*
X197365237Y-122134819D02*
X197365237Y-121134819D01*
X197365237Y-121134819D02*
X197460475Y-121277676D01*
X197460475Y-121277676D02*
X197555713Y-121372914D01*
X197555713Y-121372914D02*
X197650951Y-121420533D01*
X196460475Y-121134819D02*
X196365237Y-121134819D01*
X196365237Y-121134819D02*
X196269999Y-121182438D01*
X196269999Y-121182438D02*
X196222380Y-121230057D01*
X196222380Y-121230057D02*
X196174761Y-121325295D01*
X196174761Y-121325295D02*
X196127142Y-121515771D01*
X196127142Y-121515771D02*
X196127142Y-121753866D01*
X196127142Y-121753866D02*
X196174761Y-121944342D01*
X196174761Y-121944342D02*
X196222380Y-122039580D01*
X196222380Y-122039580D02*
X196269999Y-122087200D01*
X196269999Y-122087200D02*
X196365237Y-122134819D01*
X196365237Y-122134819D02*
X196460475Y-122134819D01*
X196460475Y-122134819D02*
X196555713Y-122087200D01*
X196555713Y-122087200D02*
X196603332Y-122039580D01*
X196603332Y-122039580D02*
X196650951Y-121944342D01*
X196650951Y-121944342D02*
X196698570Y-121753866D01*
X196698570Y-121753866D02*
X196698570Y-121515771D01*
X196698570Y-121515771D02*
X196650951Y-121325295D01*
X196650951Y-121325295D02*
X196603332Y-121230057D01*
X196603332Y-121230057D02*
X196555713Y-121182438D01*
X196555713Y-121182438D02*
X196460475Y-121134819D01*
D13*
X153310449Y-78666963D02*
X153414600Y-78694640D01*
X153352410Y-78742447D01*
X152942500Y-78763287D01*
X152718268Y-78760553D01*
X152414303Y-78728449D01*
X152463782Y-78671234D01*
X152758923Y-78632884D01*
X153310449Y-78666963D01*
G36*
X153310449Y-78666963D02*
G01*
X153414600Y-78694640D01*
X153352410Y-78742447D01*
X152942500Y-78763287D01*
X152718268Y-78760553D01*
X152414303Y-78728449D01*
X152463782Y-78671234D01*
X152758923Y-78632884D01*
X153310449Y-78666963D01*
G37*
X153294210Y-78005918D02*
X153471666Y-78161850D01*
X153385853Y-78254867D01*
X153048333Y-78242996D01*
X152799525Y-78162333D01*
X152625000Y-78051146D01*
X152703778Y-78004143D01*
X153048333Y-77970000D01*
X153294210Y-78005918D01*
G36*
X153294210Y-78005918D02*
G01*
X153471666Y-78161850D01*
X153385853Y-78254867D01*
X153048333Y-78242996D01*
X152799525Y-78162333D01*
X152625000Y-78051146D01*
X152703778Y-78004143D01*
X153048333Y-77970000D01*
X153294210Y-78005918D01*
G37*
X155830526Y-77175885D02*
X156011666Y-77335000D01*
X155880287Y-77474210D01*
X155482500Y-77546666D01*
X155134473Y-77494114D01*
X154953333Y-77335000D01*
X155084712Y-77195789D01*
X155482500Y-77123333D01*
X155830526Y-77175885D01*
G36*
X155830526Y-77175885D02*
G01*
X156011666Y-77335000D01*
X155880287Y-77474210D01*
X155482500Y-77546666D01*
X155134473Y-77494114D01*
X154953333Y-77335000D01*
X155084712Y-77195789D01*
X155482500Y-77123333D01*
X155830526Y-77175885D01*
G37*
X170243782Y-78666963D02*
X170347933Y-78694640D01*
X170285743Y-78742447D01*
X169875833Y-78763287D01*
X169651602Y-78760553D01*
X169347636Y-78728449D01*
X169397115Y-78671234D01*
X169692257Y-78632884D01*
X170243782Y-78666963D01*
G36*
X170243782Y-78666963D02*
G01*
X170347933Y-78694640D01*
X170285743Y-78742447D01*
X169875833Y-78763287D01*
X169651602Y-78760553D01*
X169347636Y-78728449D01*
X169397115Y-78671234D01*
X169692257Y-78632884D01*
X170243782Y-78666963D01*
G37*
X170223485Y-78023901D02*
X170405000Y-78181666D01*
X170331269Y-78302285D01*
X169994158Y-78393333D01*
X169751049Y-78359480D01*
X169452500Y-78181666D01*
X169503214Y-78037190D01*
X169863341Y-77970000D01*
X170223485Y-78023901D01*
G36*
X170223485Y-78023901D02*
G01*
X170405000Y-78181666D01*
X170331269Y-78302285D01*
X169994158Y-78393333D01*
X169751049Y-78359480D01*
X169452500Y-78181666D01*
X169503214Y-78037190D01*
X169863341Y-77970000D01*
X170223485Y-78023901D01*
G37*
X170772506Y-77394778D02*
X170919895Y-77432358D01*
X170779423Y-77470287D01*
X170299166Y-77486127D01*
X169906324Y-77479196D01*
X169629000Y-77447243D01*
X169714173Y-77397667D01*
X170146525Y-77359958D01*
X170772506Y-77394778D01*
G36*
X170772506Y-77394778D02*
G01*
X170919895Y-77432358D01*
X170779423Y-77470287D01*
X170299166Y-77486127D01*
X169906324Y-77479196D01*
X169629000Y-77447243D01*
X169714173Y-77397667D01*
X170146525Y-77359958D01*
X170772506Y-77394778D01*
G37*
X172769078Y-78647547D02*
X172868563Y-78769101D01*
X172662012Y-78888968D01*
X172209451Y-78979358D01*
X171855147Y-78956906D01*
X171781704Y-78815257D01*
X171988091Y-78680744D01*
X172440817Y-78605000D01*
X172769078Y-78647547D01*
G36*
X172769078Y-78647547D02*
G01*
X172868563Y-78769101D01*
X172662012Y-78888968D01*
X172209451Y-78979358D01*
X171855147Y-78956906D01*
X171781704Y-78815257D01*
X171988091Y-78680744D01*
X172440817Y-78605000D01*
X172769078Y-78647547D01*
G37*
X140761755Y-78132120D02*
X140902163Y-78497744D01*
X140863561Y-78839220D01*
X140818871Y-78891733D01*
X140545374Y-78913460D01*
X140462646Y-78828532D01*
X140359163Y-78492666D01*
X140383466Y-78135940D01*
X140537354Y-77970000D01*
X140761755Y-78132120D01*
G36*
X140761755Y-78132120D02*
G01*
X140902163Y-78497744D01*
X140863561Y-78839220D01*
X140818871Y-78891733D01*
X140545374Y-78913460D01*
X140462646Y-78828532D01*
X140359163Y-78492666D01*
X140383466Y-78135940D01*
X140537354Y-77970000D01*
X140761755Y-78132120D01*
G37*
X170616666Y-75430000D02*
X170603510Y-75468120D01*
X170332944Y-75586549D01*
X169822916Y-75626789D01*
X169404860Y-75607367D01*
X169253779Y-75548215D01*
X169452500Y-75430000D01*
X170010802Y-75262306D01*
X170444021Y-75261095D01*
X170616666Y-75430000D01*
G36*
X170616666Y-75430000D02*
G01*
X170603510Y-75468120D01*
X170332944Y-75586549D01*
X169822916Y-75626789D01*
X169404860Y-75607367D01*
X169253779Y-75548215D01*
X169452500Y-75430000D01*
X170010802Y-75262306D01*
X170444021Y-75261095D01*
X170616666Y-75430000D01*
G37*
X157524693Y-76547501D02*
X157810833Y-76700000D01*
X157823132Y-76728893D01*
X157669946Y-76861529D01*
X157188325Y-76911666D01*
X157080321Y-76909481D01*
X156621293Y-76838973D01*
X156435000Y-76700000D01*
X156617083Y-76550775D01*
X157057508Y-76488333D01*
X157524693Y-76547501D01*
G36*
X157524693Y-76547501D02*
G01*
X157810833Y-76700000D01*
X157823132Y-76728893D01*
X157669946Y-76861529D01*
X157188325Y-76911666D01*
X157080321Y-76909481D01*
X156621293Y-76838973D01*
X156435000Y-76700000D01*
X156617083Y-76550775D01*
X157057508Y-76488333D01*
X157524693Y-76547501D01*
G37*
X157733025Y-74645245D02*
X157916666Y-74795000D01*
X157908891Y-74825346D01*
X157657949Y-74954322D01*
X157163341Y-75006666D01*
X157061475Y-75005104D01*
X156630258Y-74939030D01*
X156540833Y-74795000D01*
X156805337Y-74648580D01*
X157294158Y-74583333D01*
X157733025Y-74645245D01*
G36*
X157733025Y-74645245D02*
G01*
X157916666Y-74795000D01*
X157908891Y-74825346D01*
X157657949Y-74954322D01*
X157163341Y-75006666D01*
X157061475Y-75005104D01*
X156630258Y-74939030D01*
X156540833Y-74795000D01*
X156805337Y-74648580D01*
X157294158Y-74583333D01*
X157733025Y-74645245D01*
G37*
X157735915Y-73999502D02*
X157916666Y-74160000D01*
X157916411Y-74165960D01*
X157720399Y-74311447D01*
X157269175Y-74371666D01*
X157247023Y-74371564D01*
X156835211Y-74309907D01*
X156752500Y-74160000D01*
X156951810Y-74026377D01*
X157399992Y-73948333D01*
X157735915Y-73999502D01*
G36*
X157735915Y-73999502D02*
G01*
X157916666Y-74160000D01*
X157916411Y-74165960D01*
X157720399Y-74311447D01*
X157269175Y-74371666D01*
X157247023Y-74371564D01*
X156835211Y-74309907D01*
X156752500Y-74160000D01*
X156951810Y-74026377D01*
X157399992Y-73948333D01*
X157735915Y-73999502D01*
G37*
X160064248Y-76539502D02*
X160245000Y-76700000D01*
X160244745Y-76705960D01*
X160048733Y-76851447D01*
X159597508Y-76911666D01*
X159575357Y-76911564D01*
X159163545Y-76849907D01*
X159080833Y-76700000D01*
X159280143Y-76566377D01*
X159728325Y-76488333D01*
X160064248Y-76539502D01*
G36*
X160064248Y-76539502D02*
G01*
X160245000Y-76700000D01*
X160244745Y-76705960D01*
X160048733Y-76851447D01*
X159597508Y-76911666D01*
X159575357Y-76911564D01*
X159163545Y-76849907D01*
X159080833Y-76700000D01*
X159280143Y-76566377D01*
X159728325Y-76488333D01*
X160064248Y-76539502D01*
G37*
X159852958Y-77123529D02*
X160267278Y-77185837D01*
X160350833Y-77335000D01*
X160221653Y-77446564D01*
X159821666Y-77546666D01*
X159591927Y-77514663D01*
X159292500Y-77335000D01*
X159286884Y-77324925D01*
X159391408Y-77179696D01*
X159821666Y-77123333D01*
X159852958Y-77123529D01*
G36*
X159852958Y-77123529D02*
G01*
X160267278Y-77185837D01*
X160350833Y-77335000D01*
X160221653Y-77446564D01*
X159821666Y-77546666D01*
X159591927Y-77514663D01*
X159292500Y-77335000D01*
X159286884Y-77324925D01*
X159391408Y-77179696D01*
X159821666Y-77123333D01*
X159852958Y-77123529D01*
G37*
X162178025Y-77185245D02*
X162361666Y-77335000D01*
X162353891Y-77365346D01*
X162102949Y-77494322D01*
X161608341Y-77546666D01*
X161506475Y-77545104D01*
X161075258Y-77479030D01*
X160985833Y-77335000D01*
X161250337Y-77188580D01*
X161739158Y-77123333D01*
X162178025Y-77185245D01*
G36*
X162178025Y-77185245D02*
G01*
X162361666Y-77335000D01*
X162353891Y-77365346D01*
X162102949Y-77494322D01*
X161608341Y-77546666D01*
X161506475Y-77545104D01*
X161075258Y-77479030D01*
X160985833Y-77335000D01*
X161250337Y-77188580D01*
X161739158Y-77123333D01*
X162178025Y-77185245D01*
G37*
X164387046Y-76721810D02*
X164520692Y-76794082D01*
X164409710Y-76866303D01*
X163896250Y-76896789D01*
X163659671Y-76897836D01*
X163185305Y-76876970D01*
X162996666Y-76830508D01*
X163113053Y-76732530D01*
X163498858Y-76656904D01*
X163983575Y-76648635D01*
X164387046Y-76721810D01*
G36*
X164387046Y-76721810D02*
G01*
X164520692Y-76794082D01*
X164409710Y-76866303D01*
X163896250Y-76896789D01*
X163659671Y-76897836D01*
X163185305Y-76876970D01*
X162996666Y-76830508D01*
X163113053Y-76732530D01*
X163498858Y-76656904D01*
X163983575Y-76648635D01*
X164387046Y-76721810D01*
G37*
X164297582Y-77174502D02*
X164478333Y-77335000D01*
X164478078Y-77340960D01*
X164282066Y-77486447D01*
X163830841Y-77546666D01*
X163808690Y-77546564D01*
X163396878Y-77484907D01*
X163314166Y-77335000D01*
X163513476Y-77201377D01*
X163961658Y-77123333D01*
X164297582Y-77174502D01*
G36*
X164297582Y-77174502D02*
G01*
X164478333Y-77335000D01*
X164478078Y-77340960D01*
X164282066Y-77486447D01*
X163830841Y-77546666D01*
X163808690Y-77546564D01*
X163396878Y-77484907D01*
X163314166Y-77335000D01*
X163513476Y-77201377D01*
X163961658Y-77123333D01*
X164297582Y-77174502D01*
G37*
X167388750Y-78662474D02*
X167500824Y-78676628D01*
X167547653Y-78711811D01*
X167230988Y-78736310D01*
X166595000Y-78745503D01*
X166335987Y-78744287D01*
X165808050Y-78729145D01*
X165615080Y-78700333D01*
X165801250Y-78662474D01*
X166593956Y-78628224D01*
X167388750Y-78662474D01*
G36*
X167388750Y-78662474D02*
G01*
X167500824Y-78676628D01*
X167547653Y-78711811D01*
X167230988Y-78736310D01*
X166595000Y-78745503D01*
X166335987Y-78744287D01*
X165808050Y-78729145D01*
X165615080Y-78700333D01*
X165801250Y-78662474D01*
X166593956Y-78628224D01*
X167388750Y-78662474D01*
G37*
X168082406Y-75218416D02*
X168527454Y-75282493D01*
X168711666Y-75430000D01*
X168586763Y-75567617D01*
X168194992Y-75641666D01*
X167839268Y-75593847D01*
X167547500Y-75430000D01*
X167543325Y-75422738D01*
X167641033Y-75275658D01*
X168064175Y-75218333D01*
X168082406Y-75218416D01*
G36*
X168082406Y-75218416D02*
G01*
X168527454Y-75282493D01*
X168711666Y-75430000D01*
X168586763Y-75567617D01*
X168194992Y-75641666D01*
X167839268Y-75593847D01*
X167547500Y-75430000D01*
X167543325Y-75422738D01*
X167641033Y-75275658D01*
X168064175Y-75218333D01*
X168082406Y-75218416D01*
G37*
X172595986Y-75379846D02*
X172900415Y-75526525D01*
X172907683Y-75536114D01*
X172769036Y-75610972D01*
X172345278Y-75641666D01*
X172307991Y-75641334D01*
X171859687Y-75574240D01*
X171675000Y-75425860D01*
X171798659Y-75328432D01*
X172166259Y-75308683D01*
X172595986Y-75379846D01*
G36*
X172595986Y-75379846D02*
G01*
X172900415Y-75526525D01*
X172907683Y-75536114D01*
X172769036Y-75610972D01*
X172345278Y-75641666D01*
X172307991Y-75641334D01*
X171859687Y-75574240D01*
X171675000Y-75425860D01*
X171798659Y-75328432D01*
X172166259Y-75308683D01*
X172595986Y-75379846D01*
G37*
X157289567Y-77123349D02*
X157732735Y-77186381D01*
X157916666Y-77335000D01*
X157916618Y-77337633D01*
X157727521Y-77485356D01*
X157281666Y-77546666D01*
X157273766Y-77546650D01*
X156830598Y-77483618D01*
X156646666Y-77335000D01*
X156646715Y-77332366D01*
X156835812Y-77184643D01*
X157281666Y-77123333D01*
X157289567Y-77123349D01*
G36*
X157289567Y-77123349D02*
G01*
X157732735Y-77186381D01*
X157916666Y-77335000D01*
X157916618Y-77337633D01*
X157727521Y-77485356D01*
X157281666Y-77546666D01*
X157273766Y-77546650D01*
X156830598Y-77483618D01*
X156646666Y-77335000D01*
X156646715Y-77332366D01*
X156835812Y-77184643D01*
X157281666Y-77123333D01*
X157289567Y-77123349D01*
G37*
X161888153Y-75462374D02*
X162248518Y-75485888D01*
X162221237Y-75536137D01*
X161832500Y-75641666D01*
X161817804Y-75645409D01*
X161367020Y-75764559D01*
X161157075Y-75828290D01*
X161136805Y-75824886D01*
X160985833Y-75641666D01*
X160972216Y-75604375D01*
X161148323Y-75485190D01*
X161661258Y-75455043D01*
X161888153Y-75462374D01*
G36*
X161888153Y-75462374D02*
G01*
X162248518Y-75485888D01*
X162221237Y-75536137D01*
X161832500Y-75641666D01*
X161817804Y-75645409D01*
X161367020Y-75764559D01*
X161157075Y-75828290D01*
X161136805Y-75824886D01*
X160985833Y-75641666D01*
X160972216Y-75604375D01*
X161148323Y-75485190D01*
X161661258Y-75455043D01*
X161888153Y-75462374D01*
G37*
X163158272Y-73967201D02*
X163651953Y-74044084D01*
X163843333Y-74160000D01*
X163739558Y-74247110D01*
X163316704Y-74336870D01*
X162679166Y-74371666D01*
X162200061Y-74352798D01*
X161706380Y-74275915D01*
X161515000Y-74160000D01*
X161618775Y-74072889D01*
X162041629Y-73983129D01*
X162679166Y-73948333D01*
X163158272Y-73967201D01*
G36*
X163158272Y-73967201D02*
G01*
X163651953Y-74044084D01*
X163843333Y-74160000D01*
X163739558Y-74247110D01*
X163316704Y-74336870D01*
X162679166Y-74371666D01*
X162200061Y-74352798D01*
X161706380Y-74275915D01*
X161515000Y-74160000D01*
X161618775Y-74072889D01*
X162041629Y-73983129D01*
X162679166Y-73948333D01*
X163158272Y-73967201D01*
G37*
X168199287Y-75875049D02*
X168700106Y-75946176D01*
X168817500Y-76065000D01*
X168570176Y-76187758D01*
X168041286Y-76257941D01*
X167395561Y-76260876D01*
X166790433Y-76196562D01*
X166383333Y-76065000D01*
X166365176Y-76052535D01*
X166362063Y-75942324D01*
X166735118Y-75878410D01*
X167507075Y-75856574D01*
X168199287Y-75875049D01*
G36*
X168199287Y-75875049D02*
G01*
X168700106Y-75946176D01*
X168817500Y-76065000D01*
X168570176Y-76187758D01*
X168041286Y-76257941D01*
X167395561Y-76260876D01*
X166790433Y-76196562D01*
X166383333Y-76065000D01*
X166365176Y-76052535D01*
X166362063Y-75942324D01*
X166735118Y-75878410D01*
X167507075Y-75856574D01*
X168199287Y-75875049D01*
G37*
X172529567Y-77970016D02*
X172972735Y-78033048D01*
X173156666Y-78181666D01*
X173156618Y-78184300D01*
X172967521Y-78332022D01*
X172521666Y-78393333D01*
X172513766Y-78393317D01*
X172070598Y-78330284D01*
X171886666Y-78181666D01*
X171886715Y-78179033D01*
X172075812Y-78031310D01*
X172521666Y-77970000D01*
X172529567Y-77970016D01*
G36*
X172529567Y-77970016D02*
G01*
X172972735Y-78033048D01*
X173156666Y-78181666D01*
X173156618Y-78184300D01*
X172967521Y-78332022D01*
X172521666Y-78393333D01*
X172513766Y-78393317D01*
X172070598Y-78330284D01*
X171886666Y-78181666D01*
X171886715Y-78179033D01*
X172075812Y-78031310D01*
X172521666Y-77970000D01*
X172529567Y-77970016D01*
G37*
X154740707Y-74150025D02*
X155191438Y-74265238D01*
X155376666Y-74416545D01*
X155324664Y-74509758D01*
X155041855Y-74500145D01*
X155013210Y-74490057D01*
X154551479Y-74406113D01*
X153941188Y-74371666D01*
X153801658Y-74368826D01*
X153420444Y-74308912D01*
X153376416Y-74191648D01*
X153672462Y-74098682D01*
X154181905Y-74088606D01*
X154740707Y-74150025D01*
G36*
X154740707Y-74150025D02*
G01*
X155191438Y-74265238D01*
X155376666Y-74416545D01*
X155324664Y-74509758D01*
X155041855Y-74500145D01*
X155013210Y-74490057D01*
X154551479Y-74406113D01*
X153941188Y-74371666D01*
X153801658Y-74368826D01*
X153420444Y-74308912D01*
X153376416Y-74191648D01*
X153672462Y-74098682D01*
X154181905Y-74088606D01*
X154740707Y-74150025D01*
G37*
X155884906Y-77999707D02*
X155942947Y-78109274D01*
X155905147Y-78223963D01*
X156039420Y-78532608D01*
X156119678Y-78652337D01*
X156044931Y-78782709D01*
X155614251Y-78816666D01*
X155585940Y-78816585D01*
X155138196Y-78789395D01*
X154953333Y-78728145D01*
X154967186Y-78587827D01*
X155212569Y-78152735D01*
X155646257Y-77970000D01*
X155884906Y-77999707D01*
G36*
X155884906Y-77999707D02*
G01*
X155942947Y-78109274D01*
X155905147Y-78223963D01*
X156039420Y-78532608D01*
X156119678Y-78652337D01*
X156044931Y-78782709D01*
X155614251Y-78816666D01*
X155585940Y-78816585D01*
X155138196Y-78789395D01*
X154953333Y-78728145D01*
X154967186Y-78587827D01*
X155212569Y-78152735D01*
X155646257Y-77970000D01*
X155884906Y-77999707D01*
G37*
X170643384Y-74044199D02*
X171253613Y-74103185D01*
X171864079Y-74196717D01*
X172333767Y-74306218D01*
X172521666Y-74413108D01*
X172436322Y-74483917D01*
X172012826Y-74520057D01*
X171304583Y-74466230D01*
X170777213Y-74397762D01*
X170209104Y-74297142D01*
X169969335Y-74197246D01*
X169999305Y-74080768D01*
X170174405Y-74038341D01*
X170643384Y-74044199D01*
G36*
X170643384Y-74044199D02*
G01*
X171253613Y-74103185D01*
X171864079Y-74196717D01*
X172333767Y-74306218D01*
X172521666Y-74413108D01*
X172436322Y-74483917D01*
X172012826Y-74520057D01*
X171304583Y-74466230D01*
X170777213Y-74397762D01*
X170209104Y-74297142D01*
X169969335Y-74197246D01*
X169999305Y-74080768D01*
X170174405Y-74038341D01*
X170643384Y-74044199D01*
G37*
X163716662Y-74633597D02*
X164277844Y-74689107D01*
X164478333Y-74793493D01*
X164473829Y-74810768D01*
X164219772Y-74913145D01*
X163631189Y-74981672D01*
X162785000Y-75006666D01*
X162143451Y-74996612D01*
X161433142Y-74944723D01*
X161142220Y-74864547D01*
X161270659Y-74774129D01*
X161818435Y-74691513D01*
X162785521Y-74634743D01*
X162855218Y-74632631D01*
X163716662Y-74633597D01*
G36*
X163716662Y-74633597D02*
G01*
X164277844Y-74689107D01*
X164478333Y-74793493D01*
X164473829Y-74810768D01*
X164219772Y-74913145D01*
X163631189Y-74981672D01*
X162785000Y-75006666D01*
X162143451Y-74996612D01*
X161433142Y-74944723D01*
X161142220Y-74864547D01*
X161270659Y-74774129D01*
X161818435Y-74691513D01*
X162785521Y-74634743D01*
X162855218Y-74632631D01*
X163716662Y-74633597D01*
G37*
X166637608Y-73984951D02*
X167353850Y-74018666D01*
X167823401Y-74087872D01*
X167958023Y-74180727D01*
X167893104Y-74227353D01*
X167511568Y-74310985D01*
X166912813Y-74357294D01*
X166224642Y-74366539D01*
X165574858Y-74338983D01*
X165091265Y-74274883D01*
X164901666Y-74174502D01*
X164908604Y-74156086D01*
X165168976Y-74066382D01*
X165730193Y-74004727D01*
X166488848Y-73983563D01*
X166637608Y-73984951D01*
G36*
X166637608Y-73984951D02*
G01*
X167353850Y-74018666D01*
X167823401Y-74087872D01*
X167958023Y-74180727D01*
X167893104Y-74227353D01*
X167511568Y-74310985D01*
X166912813Y-74357294D01*
X166224642Y-74366539D01*
X165574858Y-74338983D01*
X165091265Y-74274883D01*
X164901666Y-74174502D01*
X164908604Y-74156086D01*
X165168976Y-74066382D01*
X165730193Y-74004727D01*
X166488848Y-73983563D01*
X166637608Y-73984951D01*
G37*
X172251020Y-75941696D02*
X172800149Y-75986045D01*
X173052065Y-76066992D01*
X173057166Y-76098526D01*
X172818820Y-76195047D01*
X172198758Y-76255650D01*
X171228881Y-76276666D01*
X170746274Y-76272450D01*
X170018959Y-76246151D01*
X169544967Y-76201094D01*
X169409279Y-76143498D01*
X169568381Y-76078073D01*
X170063359Y-76002134D01*
X170758324Y-75952351D01*
X171528978Y-75931335D01*
X172251020Y-75941696D01*
G36*
X172251020Y-75941696D02*
G01*
X172800149Y-75986045D01*
X173052065Y-76066992D01*
X173057166Y-76098526D01*
X172818820Y-76195047D01*
X172198758Y-76255650D01*
X171228881Y-76276666D01*
X170746274Y-76272450D01*
X170018959Y-76246151D01*
X169544967Y-76201094D01*
X169409279Y-76143498D01*
X169568381Y-76078073D01*
X170063359Y-76002134D01*
X170758324Y-75952351D01*
X171528978Y-75931335D01*
X172251020Y-75941696D01*
G37*
X155323176Y-74747817D02*
X155820002Y-74775653D01*
X156011666Y-74829935D01*
X155924735Y-74894724D01*
X155521402Y-74986197D01*
X154900416Y-75048521D01*
X154421332Y-75064089D01*
X153775449Y-75057480D01*
X153179546Y-75027772D01*
X152726951Y-74982190D01*
X152510993Y-74927962D01*
X152625000Y-74872315D01*
X152629250Y-74871579D01*
X153174224Y-74808307D01*
X153883037Y-74765611D01*
X154638437Y-74744958D01*
X155323176Y-74747817D01*
G36*
X155323176Y-74747817D02*
G01*
X155820002Y-74775653D01*
X156011666Y-74829935D01*
X155924735Y-74894724D01*
X155521402Y-74986197D01*
X154900416Y-75048521D01*
X154421332Y-75064089D01*
X153775449Y-75057480D01*
X153179546Y-75027772D01*
X152726951Y-74982190D01*
X152510993Y-74927962D01*
X152625000Y-74872315D01*
X152629250Y-74871579D01*
X153174224Y-74808307D01*
X153883037Y-74765611D01*
X154638437Y-74744958D01*
X155323176Y-74747817D01*
G37*
X168232560Y-77914831D02*
X168731423Y-77956553D01*
X168923395Y-78022916D01*
X168868743Y-78060280D01*
X168490190Y-78122613D01*
X167830435Y-78165627D01*
X166983055Y-78181666D01*
X166511817Y-78177726D01*
X165784293Y-78152337D01*
X165309142Y-78108606D01*
X165171822Y-78052621D01*
X165183311Y-78043768D01*
X165481586Y-77976027D01*
X166051318Y-77928347D01*
X166776838Y-77901644D01*
X167542475Y-77896833D01*
X168232560Y-77914831D01*
G36*
X168232560Y-77914831D02*
G01*
X168731423Y-77956553D01*
X168923395Y-78022916D01*
X168868743Y-78060280D01*
X168490190Y-78122613D01*
X167830435Y-78165627D01*
X166983055Y-78181666D01*
X166511817Y-78177726D01*
X165784293Y-78152337D01*
X165309142Y-78108606D01*
X165171822Y-78052621D01*
X165183311Y-78043768D01*
X165481586Y-77976027D01*
X166051318Y-77928347D01*
X166776838Y-77901644D01*
X167542475Y-77896833D01*
X168232560Y-77914831D01*
G37*
X157769297Y-75285172D02*
X157916666Y-75626945D01*
X157837866Y-75892418D01*
X157440416Y-76127286D01*
X157122151Y-76188233D01*
X156805416Y-76247841D01*
X156765552Y-76248278D01*
X156646666Y-76065000D01*
X156750755Y-75928693D01*
X157122916Y-75832234D01*
X157383128Y-75816365D01*
X157424478Y-75772248D01*
X157070000Y-75663739D01*
X156831386Y-75591349D01*
X156698100Y-75489048D01*
X156928562Y-75367338D01*
X157327255Y-75247270D01*
X157769297Y-75285172D01*
G36*
X157769297Y-75285172D02*
G01*
X157916666Y-75626945D01*
X157837866Y-75892418D01*
X157440416Y-76127286D01*
X157122151Y-76188233D01*
X156805416Y-76247841D01*
X156765552Y-76248278D01*
X156646666Y-76065000D01*
X156750755Y-75928693D01*
X157122916Y-75832234D01*
X157383128Y-75816365D01*
X157424478Y-75772248D01*
X157070000Y-75663739D01*
X156831386Y-75591349D01*
X156698100Y-75489048D01*
X156928562Y-75367338D01*
X157327255Y-75247270D01*
X157769297Y-75285172D01*
G37*
X164058541Y-75432020D02*
X164493424Y-75498779D01*
X164584166Y-75641666D01*
X164551969Y-75724395D01*
X164690000Y-75853333D01*
X164772028Y-75870266D01*
X164795833Y-76065000D01*
X164759038Y-76102124D01*
X164447971Y-76214630D01*
X163998993Y-76277399D01*
X163595277Y-76274035D01*
X163420000Y-76188145D01*
X163403591Y-76102231D01*
X163291521Y-75764811D01*
X163261671Y-75601995D01*
X163432301Y-75465814D01*
X163939012Y-75430000D01*
X164058541Y-75432020D01*
G36*
X164058541Y-75432020D02*
G01*
X164493424Y-75498779D01*
X164584166Y-75641666D01*
X164551969Y-75724395D01*
X164690000Y-75853333D01*
X164772028Y-75870266D01*
X164795833Y-76065000D01*
X164759038Y-76102124D01*
X164447971Y-76214630D01*
X163998993Y-76277399D01*
X163595277Y-76274035D01*
X163420000Y-76188145D01*
X163403591Y-76102231D01*
X163291521Y-75764811D01*
X163261671Y-75601995D01*
X163432301Y-75465814D01*
X163939012Y-75430000D01*
X164058541Y-75432020D01*
G37*
X160301967Y-75957814D02*
X159968713Y-76128820D01*
X159665429Y-76188259D01*
X159370103Y-76247841D01*
X159269304Y-76182455D01*
X159125336Y-75853333D01*
X159104802Y-75747500D01*
X159398333Y-75747500D01*
X159504166Y-75853333D01*
X159610000Y-75747500D01*
X159504166Y-75641666D01*
X159398333Y-75747500D01*
X159104802Y-75747500D01*
X159095127Y-75697638D01*
X159191670Y-75482654D01*
X159607170Y-75430000D01*
X160029734Y-75504962D01*
X160304301Y-75715057D01*
X160303989Y-75747500D01*
X160301967Y-75957814D01*
G36*
X160301967Y-75957814D02*
G01*
X159968713Y-76128820D01*
X159665429Y-76188259D01*
X159370103Y-76247841D01*
X159269304Y-76182455D01*
X159125336Y-75853333D01*
X159104802Y-75747500D01*
X159398333Y-75747500D01*
X159504166Y-75853333D01*
X159610000Y-75747500D01*
X159504166Y-75641666D01*
X159398333Y-75747500D01*
X159104802Y-75747500D01*
X159095127Y-75697638D01*
X159191670Y-75482654D01*
X159607170Y-75430000D01*
X160029734Y-75504962D01*
X160304301Y-75715057D01*
X160303989Y-75747500D01*
X160301967Y-75957814D01*
G37*
X159821666Y-74116741D02*
X159912106Y-74131271D01*
X160321067Y-74211067D01*
X160350031Y-74281991D01*
X160033333Y-74388054D01*
X159738884Y-74477293D01*
X159667170Y-74537357D01*
X159980416Y-74562234D01*
X160276730Y-74621623D01*
X160456666Y-74795000D01*
X160274583Y-74944224D01*
X159834158Y-75006666D01*
X159366974Y-74947498D01*
X159080833Y-74795000D01*
X159051726Y-74701124D01*
X159227091Y-74580092D01*
X159372990Y-74541317D01*
X159192796Y-74379934D01*
X159104778Y-74320251D01*
X158969480Y-74130746D01*
X159215976Y-74059756D01*
X159821666Y-74116741D01*
G36*
X159821666Y-74116741D02*
G01*
X159912106Y-74131271D01*
X160321067Y-74211067D01*
X160350031Y-74281991D01*
X160033333Y-74388054D01*
X159738884Y-74477293D01*
X159667170Y-74537357D01*
X159980416Y-74562234D01*
X160276730Y-74621623D01*
X160456666Y-74795000D01*
X160274583Y-74944224D01*
X159834158Y-75006666D01*
X159366974Y-74947498D01*
X159080833Y-74795000D01*
X159051726Y-74701124D01*
X159227091Y-74580092D01*
X159372990Y-74541317D01*
X159192796Y-74379934D01*
X159104778Y-74320251D01*
X158969480Y-74130746D01*
X159215976Y-74059756D01*
X159821666Y-74116741D01*
G37*
X150024228Y-75469078D02*
X149714583Y-75836379D01*
X149399735Y-75998692D01*
X149071927Y-76010003D01*
X148716979Y-75725074D01*
X148579763Y-75544814D01*
X148573655Y-75430000D01*
X148920833Y-75430000D01*
X148964218Y-75488422D01*
X149238333Y-75641666D01*
X149294960Y-75633415D01*
X149555833Y-75430000D01*
X149538791Y-75297887D01*
X149238333Y-75218333D01*
X148987312Y-75264929D01*
X148920833Y-75430000D01*
X148573655Y-75430000D01*
X148560149Y-75176129D01*
X148878401Y-74902251D01*
X149475917Y-74795000D01*
X149577974Y-74796843D01*
X149974945Y-74899387D01*
X150085000Y-75207815D01*
X150033317Y-75430000D01*
X150024228Y-75469078D01*
G36*
X150024228Y-75469078D02*
G01*
X149714583Y-75836379D01*
X149399735Y-75998692D01*
X149071927Y-76010003D01*
X148716979Y-75725074D01*
X148579763Y-75544814D01*
X148573655Y-75430000D01*
X148920833Y-75430000D01*
X148964218Y-75488422D01*
X149238333Y-75641666D01*
X149294960Y-75633415D01*
X149555833Y-75430000D01*
X149538791Y-75297887D01*
X149238333Y-75218333D01*
X148987312Y-75264929D01*
X148920833Y-75430000D01*
X148573655Y-75430000D01*
X148560149Y-75176129D01*
X148878401Y-74902251D01*
X149475917Y-74795000D01*
X149577974Y-74796843D01*
X149974945Y-74899387D01*
X150085000Y-75207815D01*
X150033317Y-75430000D01*
X150024228Y-75469078D01*
G37*
X150408549Y-77863733D02*
X150166029Y-78120144D01*
X149965466Y-78245247D01*
X149364678Y-78378166D01*
X148857333Y-78139333D01*
X148650504Y-77806673D01*
X148656974Y-77549565D01*
X148920833Y-77549565D01*
X149057925Y-77777834D01*
X149502916Y-77931142D01*
X149894274Y-77936073D01*
X150068078Y-77766904D01*
X149897645Y-77367090D01*
X149809169Y-77268035D01*
X149449053Y-77153997D01*
X149086239Y-77260300D01*
X148920833Y-77549565D01*
X148656974Y-77549565D01*
X148663111Y-77305698D01*
X149012751Y-76919113D01*
X149498691Y-76729214D01*
X149946019Y-76811720D01*
X150278343Y-77273478D01*
X150384977Y-77531865D01*
X150401672Y-77766904D01*
X150408549Y-77863733D01*
G36*
X150408549Y-77863733D02*
G01*
X150166029Y-78120144D01*
X149965466Y-78245247D01*
X149364678Y-78378166D01*
X148857333Y-78139333D01*
X148650504Y-77806673D01*
X148656974Y-77549565D01*
X148920833Y-77549565D01*
X149057925Y-77777834D01*
X149502916Y-77931142D01*
X149894274Y-77936073D01*
X150068078Y-77766904D01*
X149897645Y-77367090D01*
X149809169Y-77268035D01*
X149449053Y-77153997D01*
X149086239Y-77260300D01*
X148920833Y-77549565D01*
X148656974Y-77549565D01*
X148663111Y-77305698D01*
X149012751Y-76919113D01*
X149498691Y-76729214D01*
X149946019Y-76811720D01*
X150278343Y-77273478D01*
X150384977Y-77531865D01*
X150401672Y-77766904D01*
X150408549Y-77863733D01*
G37*
X170495251Y-74654955D02*
X171318572Y-74688567D01*
X171886666Y-74745958D01*
X171912310Y-74750357D01*
X172245205Y-74819775D01*
X172310564Y-74872021D01*
X172077231Y-74909650D01*
X171514052Y-74935220D01*
X170589872Y-74951288D01*
X169273536Y-74960411D01*
X168178752Y-74970222D01*
X167087811Y-74991598D01*
X166210280Y-75021566D01*
X165616132Y-75057665D01*
X165375342Y-75097436D01*
X165364853Y-75107184D01*
X165148611Y-75112500D01*
X165140512Y-75103628D01*
X165163101Y-74886343D01*
X165256301Y-74846948D01*
X165713207Y-74777519D01*
X166457107Y-74720546D01*
X167397632Y-74677916D01*
X168444411Y-74651516D01*
X169507074Y-74643234D01*
X170495251Y-74654955D01*
G36*
X170495251Y-74654955D02*
G01*
X171318572Y-74688567D01*
X171886666Y-74745958D01*
X171912310Y-74750357D01*
X172245205Y-74819775D01*
X172310564Y-74872021D01*
X172077231Y-74909650D01*
X171514052Y-74935220D01*
X170589872Y-74951288D01*
X169273536Y-74960411D01*
X168178752Y-74970222D01*
X167087811Y-74991598D01*
X166210280Y-75021566D01*
X165616132Y-75057665D01*
X165375342Y-75097436D01*
X165364853Y-75107184D01*
X165148611Y-75112500D01*
X165140512Y-75103628D01*
X165163101Y-74886343D01*
X165256301Y-74846948D01*
X165713207Y-74777519D01*
X166457107Y-74720546D01*
X167397632Y-74677916D01*
X168444411Y-74651516D01*
X169507074Y-74643234D01*
X170495251Y-74654955D01*
G37*
X171428351Y-76700243D02*
X172213742Y-76730976D01*
X172747887Y-76805234D01*
X172945000Y-76911666D01*
X172889242Y-77026179D01*
X172574583Y-77144432D01*
X172548846Y-77146161D01*
X172432244Y-77206135D01*
X172733333Y-77335000D01*
X172743251Y-77338178D01*
X173061761Y-77452357D01*
X173015248Y-77503164D01*
X172574583Y-77525567D01*
X172078956Y-77474783D01*
X171886666Y-77251813D01*
X171848236Y-77130992D01*
X171560099Y-77015609D01*
X170930253Y-77013601D01*
X170650456Y-77022040D01*
X170121505Y-76984937D01*
X169859427Y-76885121D01*
X169856615Y-76864508D01*
X170074685Y-76780875D01*
X170601956Y-76722159D01*
X171345008Y-76700000D01*
X171428351Y-76700243D01*
G36*
X171428351Y-76700243D02*
G01*
X172213742Y-76730976D01*
X172747887Y-76805234D01*
X172945000Y-76911666D01*
X172889242Y-77026179D01*
X172574583Y-77144432D01*
X172548846Y-77146161D01*
X172432244Y-77206135D01*
X172733333Y-77335000D01*
X172743251Y-77338178D01*
X173061761Y-77452357D01*
X173015248Y-77503164D01*
X172574583Y-77525567D01*
X172078956Y-77474783D01*
X171886666Y-77251813D01*
X171848236Y-77130992D01*
X171560099Y-77015609D01*
X170930253Y-77013601D01*
X170650456Y-77022040D01*
X170121505Y-76984937D01*
X169859427Y-76885121D01*
X169856615Y-76864508D01*
X170074685Y-76780875D01*
X170601956Y-76722159D01*
X171345008Y-76700000D01*
X171428351Y-76700243D01*
G37*
X164499068Y-77863858D02*
X164690000Y-77950998D01*
X164640722Y-78025706D01*
X164284445Y-78149359D01*
X163684583Y-78210491D01*
X163322856Y-78229488D01*
X163075818Y-78275944D01*
X163208333Y-78334248D01*
X163586563Y-78437489D01*
X163938583Y-78622923D01*
X163932252Y-78706157D01*
X163599087Y-78787361D01*
X162933167Y-78816666D01*
X162414610Y-78795991D01*
X161918412Y-78719141D01*
X161726666Y-78605000D01*
X161572771Y-78460872D01*
X161155167Y-78393333D01*
X160799688Y-78343532D01*
X160784750Y-78204794D01*
X160812202Y-78184100D01*
X161170247Y-78066685D01*
X161779922Y-77965199D01*
X162529435Y-77886909D01*
X163306992Y-77839078D01*
X164000801Y-77828972D01*
X164499068Y-77863858D01*
G36*
X164499068Y-77863858D02*
G01*
X164690000Y-77950998D01*
X164640722Y-78025706D01*
X164284445Y-78149359D01*
X163684583Y-78210491D01*
X163322856Y-78229488D01*
X163075818Y-78275944D01*
X163208333Y-78334248D01*
X163586563Y-78437489D01*
X163938583Y-78622923D01*
X163932252Y-78706157D01*
X163599087Y-78787361D01*
X162933167Y-78816666D01*
X162414610Y-78795991D01*
X161918412Y-78719141D01*
X161726666Y-78605000D01*
X161572771Y-78460872D01*
X161155167Y-78393333D01*
X160799688Y-78343532D01*
X160784750Y-78204794D01*
X160812202Y-78184100D01*
X161170247Y-78066685D01*
X161779922Y-77965199D01*
X162529435Y-77886909D01*
X163306992Y-77839078D01*
X164000801Y-77828972D01*
X164499068Y-77863858D01*
G37*
X152943660Y-75470166D02*
X153342498Y-75738887D01*
X153429187Y-75828251D01*
X153816782Y-75959676D01*
X154493775Y-75920445D01*
X154756546Y-75878363D01*
X155153947Y-75755590D01*
X155128775Y-75614799D01*
X155106131Y-75599821D01*
X155064580Y-75475484D01*
X155429583Y-75433241D01*
X155505694Y-75433935D01*
X155902002Y-75533930D01*
X156011666Y-75853333D01*
X155991304Y-76025908D01*
X155868351Y-76161943D01*
X155562312Y-76237379D01*
X154993131Y-76269770D01*
X154080749Y-76276666D01*
X153782152Y-76275974D01*
X152977338Y-76259614D01*
X152517080Y-76213766D01*
X152340214Y-76128180D01*
X152385579Y-75992608D01*
X152487988Y-75823788D01*
X152482052Y-75569274D01*
X152471419Y-75489785D01*
X152725137Y-75430000D01*
X152943660Y-75470166D01*
G36*
X152943660Y-75470166D02*
G01*
X153342498Y-75738887D01*
X153429187Y-75828251D01*
X153816782Y-75959676D01*
X154493775Y-75920445D01*
X154756546Y-75878363D01*
X155153947Y-75755590D01*
X155128775Y-75614799D01*
X155106131Y-75599821D01*
X155064580Y-75475484D01*
X155429583Y-75433241D01*
X155505694Y-75433935D01*
X155902002Y-75533930D01*
X156011666Y-75853333D01*
X155991304Y-76025908D01*
X155868351Y-76161943D01*
X155562312Y-76237379D01*
X154993131Y-76269770D01*
X154080749Y-76276666D01*
X153782152Y-76275974D01*
X152977338Y-76259614D01*
X152517080Y-76213766D01*
X152340214Y-76128180D01*
X152385579Y-75992608D01*
X152487988Y-75823788D01*
X152482052Y-75569274D01*
X152471419Y-75489785D01*
X152725137Y-75430000D01*
X152943660Y-75470166D01*
G37*
X154394877Y-77229166D02*
X154294486Y-77363648D01*
X153908178Y-77494482D01*
X153184437Y-77517841D01*
X152767783Y-77496888D01*
X152488849Y-77451611D01*
X152572083Y-77397286D01*
X152868446Y-77277953D01*
X153048333Y-77020839D01*
X153049219Y-77017500D01*
X153895000Y-77017500D01*
X154000833Y-77123333D01*
X154106666Y-77017500D01*
X154000833Y-76911666D01*
X153895000Y-77017500D01*
X153049219Y-77017500D01*
X153056485Y-76990118D01*
X153315502Y-76845653D01*
X153844604Y-76727142D01*
X154516043Y-76646149D01*
X155202072Y-76614239D01*
X155774946Y-76642980D01*
X156106916Y-76743934D01*
X156126541Y-76792699D01*
X155909039Y-76877932D01*
X155412357Y-76911666D01*
X155401129Y-76911678D01*
X154705783Y-76991531D01*
X154671806Y-77017500D01*
X154394877Y-77229166D01*
G36*
X154394877Y-77229166D02*
G01*
X154294486Y-77363648D01*
X153908178Y-77494482D01*
X153184437Y-77517841D01*
X152767783Y-77496888D01*
X152488849Y-77451611D01*
X152572083Y-77397286D01*
X152868446Y-77277953D01*
X153048333Y-77020839D01*
X153049219Y-77017500D01*
X153895000Y-77017500D01*
X154000833Y-77123333D01*
X154106666Y-77017500D01*
X154000833Y-76911666D01*
X153895000Y-77017500D01*
X153049219Y-77017500D01*
X153056485Y-76990118D01*
X153315502Y-76845653D01*
X153844604Y-76727142D01*
X154516043Y-76646149D01*
X155202072Y-76614239D01*
X155774946Y-76642980D01*
X156106916Y-76743934D01*
X156126541Y-76792699D01*
X155909039Y-76877932D01*
X155412357Y-76911666D01*
X155401129Y-76911678D01*
X154705783Y-76991531D01*
X154671806Y-77017500D01*
X154394877Y-77229166D01*
G37*
X159491059Y-78541334D02*
X159518865Y-78644841D01*
X159437451Y-78774977D01*
X159102003Y-78811136D01*
X158429879Y-78771223D01*
X157933245Y-78712327D01*
X157376326Y-78592676D01*
X157243425Y-78527554D01*
X158589108Y-78527554D01*
X158763333Y-78605000D01*
X158875389Y-78589724D01*
X158904444Y-78463888D01*
X158873421Y-78438556D01*
X158622222Y-78463888D01*
X158589108Y-78527554D01*
X157243425Y-78527554D01*
X157103435Y-78458958D01*
X157015553Y-78358052D01*
X156646666Y-78124282D01*
X156653160Y-78087497D01*
X156977429Y-78047549D01*
X157599152Y-78023103D01*
X158445833Y-78018424D01*
X159105096Y-78028294D01*
X159716908Y-78052254D01*
X160022687Y-78085243D01*
X159963782Y-78123212D01*
X159902486Y-78133076D01*
X159518931Y-78276908D01*
X159499222Y-78463888D01*
X159491059Y-78541334D01*
G36*
X159491059Y-78541334D02*
G01*
X159518865Y-78644841D01*
X159437451Y-78774977D01*
X159102003Y-78811136D01*
X158429879Y-78771223D01*
X157933245Y-78712327D01*
X157376326Y-78592676D01*
X157243425Y-78527554D01*
X158589108Y-78527554D01*
X158763333Y-78605000D01*
X158875389Y-78589724D01*
X158904444Y-78463888D01*
X158873421Y-78438556D01*
X158622222Y-78463888D01*
X158589108Y-78527554D01*
X157243425Y-78527554D01*
X157103435Y-78458958D01*
X157015553Y-78358052D01*
X156646666Y-78124282D01*
X156653160Y-78087497D01*
X156977429Y-78047549D01*
X157599152Y-78023103D01*
X158445833Y-78018424D01*
X159105096Y-78028294D01*
X159716908Y-78052254D01*
X160022687Y-78085243D01*
X159963782Y-78123212D01*
X159902486Y-78133076D01*
X159518931Y-78276908D01*
X159499222Y-78463888D01*
X159491059Y-78541334D01*
G37*
X168548563Y-77046915D02*
X168658750Y-77120092D01*
X168755904Y-77136148D01*
X168923333Y-77335000D01*
X168914349Y-77376103D01*
X168676987Y-77508119D01*
X168255985Y-77540801D01*
X167838670Y-77476590D01*
X167612364Y-77317925D01*
X167598344Y-77289885D01*
X167310036Y-77089886D01*
X167181035Y-77045887D01*
X167902441Y-77045887D01*
X168076666Y-77123333D01*
X168188722Y-77108057D01*
X168217778Y-76982222D01*
X168186754Y-76956889D01*
X167935555Y-76982222D01*
X167902441Y-77045887D01*
X167181035Y-77045887D01*
X166800975Y-76916258D01*
X166798956Y-76915783D01*
X166480110Y-76826832D01*
X166474021Y-76771666D01*
X166817535Y-76740839D01*
X167547500Y-76724907D01*
X167639826Y-76723932D01*
X168390581Y-76738264D01*
X168741421Y-76799809D01*
X168711666Y-76911666D01*
X168626579Y-76982222D01*
X168548563Y-77046915D01*
G36*
X168548563Y-77046915D02*
G01*
X168658750Y-77120092D01*
X168755904Y-77136148D01*
X168923333Y-77335000D01*
X168914349Y-77376103D01*
X168676987Y-77508119D01*
X168255985Y-77540801D01*
X167838670Y-77476590D01*
X167612364Y-77317925D01*
X167598344Y-77289885D01*
X167310036Y-77089886D01*
X167181035Y-77045887D01*
X167902441Y-77045887D01*
X168076666Y-77123333D01*
X168188722Y-77108057D01*
X168217778Y-76982222D01*
X168186754Y-76956889D01*
X167935555Y-76982222D01*
X167902441Y-77045887D01*
X167181035Y-77045887D01*
X166800975Y-76916258D01*
X166798956Y-76915783D01*
X166480110Y-76826832D01*
X166474021Y-76771666D01*
X166817535Y-76740839D01*
X167547500Y-76724907D01*
X167639826Y-76723932D01*
X168390581Y-76738264D01*
X168741421Y-76799809D01*
X168711666Y-76911666D01*
X168626579Y-76982222D01*
X168548563Y-77046915D01*
G37*
X146203046Y-77284590D02*
X146011458Y-77725541D01*
X145653579Y-77889868D01*
X145111875Y-77926625D01*
X144743439Y-77850030D01*
X144440754Y-77592371D01*
X144206693Y-77039831D01*
X144071468Y-76486218D01*
X144376033Y-76486218D01*
X144589114Y-77137248D01*
X144822053Y-77385556D01*
X145329947Y-77546666D01*
X145459688Y-77543555D01*
X145719266Y-77462857D01*
X145829019Y-77186746D01*
X145851666Y-76601613D01*
X145832948Y-76146331D01*
X145705449Y-75685504D01*
X145414803Y-75422758D01*
X145035511Y-75320651D01*
X144643449Y-75486105D01*
X144408884Y-75905232D01*
X144376033Y-76486218D01*
X144071468Y-76486218D01*
X144062384Y-76449027D01*
X144107570Y-75721479D01*
X144487185Y-75131386D01*
X144761174Y-74967097D01*
X145288345Y-74957857D01*
X145786498Y-75205411D01*
X146088802Y-75655197D01*
X146122005Y-75781755D01*
X146241667Y-76589217D01*
X146240978Y-76601613D01*
X146203046Y-77284590D01*
G36*
X146203046Y-77284590D02*
G01*
X146011458Y-77725541D01*
X145653579Y-77889868D01*
X145111875Y-77926625D01*
X144743439Y-77850030D01*
X144440754Y-77592371D01*
X144206693Y-77039831D01*
X144071468Y-76486218D01*
X144376033Y-76486218D01*
X144589114Y-77137248D01*
X144822053Y-77385556D01*
X145329947Y-77546666D01*
X145459688Y-77543555D01*
X145719266Y-77462857D01*
X145829019Y-77186746D01*
X145851666Y-76601613D01*
X145832948Y-76146331D01*
X145705449Y-75685504D01*
X145414803Y-75422758D01*
X145035511Y-75320651D01*
X144643449Y-75486105D01*
X144408884Y-75905232D01*
X144376033Y-76486218D01*
X144071468Y-76486218D01*
X144062384Y-76449027D01*
X144107570Y-75721479D01*
X144487185Y-75131386D01*
X144761174Y-74967097D01*
X145288345Y-74957857D01*
X145786498Y-75205411D01*
X146088802Y-75655197D01*
X146122005Y-75781755D01*
X146241667Y-76589217D01*
X146240978Y-76601613D01*
X146203046Y-77284590D01*
G37*
X151692307Y-78735541D02*
X151691726Y-78737009D01*
X151438746Y-78876711D01*
X150897128Y-78976335D01*
X150198919Y-79030496D01*
X149476167Y-79033808D01*
X148860921Y-78980885D01*
X148485231Y-78866342D01*
X148081684Y-78490601D01*
X147755956Y-77810773D01*
X147799052Y-77092731D01*
X147846822Y-76945938D01*
X147895964Y-76472074D01*
X147674904Y-76091598D01*
X147627504Y-76037382D01*
X147370544Y-75547491D01*
X147373876Y-75515599D01*
X147805264Y-75515599D01*
X148102084Y-76095847D01*
X148273868Y-76320296D01*
X148332545Y-76648784D01*
X148169485Y-77148717D01*
X148154868Y-77184141D01*
X148008859Y-77641935D01*
X148096925Y-77952973D01*
X148470872Y-78318286D01*
X148775774Y-78544804D01*
X149253712Y-78732043D01*
X149883768Y-78765161D01*
X150793410Y-78663081D01*
X151030148Y-78617987D01*
X151289284Y-78455017D01*
X151265513Y-78112713D01*
X151156266Y-77678529D01*
X150994798Y-76980661D01*
X150816236Y-76170833D01*
X150632234Y-75321610D01*
X150463389Y-74633660D01*
X150306889Y-74224947D01*
X150118852Y-74022880D01*
X149855394Y-73954871D01*
X149472633Y-73948333D01*
X148822376Y-74053969D01*
X148221479Y-74406806D01*
X147863752Y-74923300D01*
X147805264Y-75515599D01*
X147373876Y-75515599D01*
X147428808Y-74989793D01*
X147809583Y-74265484D01*
X147904664Y-74121826D01*
X148236666Y-73732354D01*
X148630233Y-73564691D01*
X149265332Y-73527620D01*
X149555992Y-73538121D01*
X150127069Y-73631148D01*
X150445356Y-73789583D01*
X150461124Y-73811409D01*
X150684694Y-74285252D01*
X150906206Y-74983755D01*
X151075730Y-75725305D01*
X151143333Y-76328291D01*
X151146531Y-76409744D01*
X151256345Y-76998190D01*
X151473998Y-77651358D01*
X151535423Y-77808842D01*
X151687377Y-78365115D01*
X151688574Y-78455017D01*
X151692307Y-78735541D01*
G36*
X151692307Y-78735541D02*
G01*
X151691726Y-78737009D01*
X151438746Y-78876711D01*
X150897128Y-78976335D01*
X150198919Y-79030496D01*
X149476167Y-79033808D01*
X148860921Y-78980885D01*
X148485231Y-78866342D01*
X148081684Y-78490601D01*
X147755956Y-77810773D01*
X147799052Y-77092731D01*
X147846822Y-76945938D01*
X147895964Y-76472074D01*
X147674904Y-76091598D01*
X147627504Y-76037382D01*
X147370544Y-75547491D01*
X147373876Y-75515599D01*
X147805264Y-75515599D01*
X148102084Y-76095847D01*
X148273868Y-76320296D01*
X148332545Y-76648784D01*
X148169485Y-77148717D01*
X148154868Y-77184141D01*
X148008859Y-77641935D01*
X148096925Y-77952973D01*
X148470872Y-78318286D01*
X148775774Y-78544804D01*
X149253712Y-78732043D01*
X149883768Y-78765161D01*
X150793410Y-78663081D01*
X151030148Y-78617987D01*
X151289284Y-78455017D01*
X151265513Y-78112713D01*
X151156266Y-77678529D01*
X150994798Y-76980661D01*
X150816236Y-76170833D01*
X150632234Y-75321610D01*
X150463389Y-74633660D01*
X150306889Y-74224947D01*
X150118852Y-74022880D01*
X149855394Y-73954871D01*
X149472633Y-73948333D01*
X148822376Y-74053969D01*
X148221479Y-74406806D01*
X147863752Y-74923300D01*
X147805264Y-75515599D01*
X147373876Y-75515599D01*
X147428808Y-74989793D01*
X147809583Y-74265484D01*
X147904664Y-74121826D01*
X148236666Y-73732354D01*
X148630233Y-73564691D01*
X149265332Y-73527620D01*
X149555992Y-73538121D01*
X150127069Y-73631148D01*
X150445356Y-73789583D01*
X150461124Y-73811409D01*
X150684694Y-74285252D01*
X150906206Y-74983755D01*
X151075730Y-75725305D01*
X151143333Y-76328291D01*
X151146531Y-76409744D01*
X151256345Y-76998190D01*
X151473998Y-77651358D01*
X151535423Y-77808842D01*
X151687377Y-78365115D01*
X151688574Y-78455017D01*
X151692307Y-78735541D01*
G37*
X143741613Y-74172567D02*
X143881074Y-74265419D01*
X144178219Y-74036170D01*
X144615192Y-73768227D01*
X145269048Y-73713726D01*
X145918295Y-73978080D01*
X146492435Y-74510284D01*
X146920974Y-75259335D01*
X147133414Y-76174230D01*
X147159944Y-76565020D01*
X147148936Y-77193335D01*
X147143192Y-77521211D01*
X146964090Y-78206911D01*
X146602121Y-78720454D01*
X146114857Y-79074996D01*
X145311210Y-79240000D01*
X144605046Y-79091361D01*
X143920765Y-78599791D01*
X143417660Y-77839094D01*
X143144524Y-76886505D01*
X143146749Y-76464524D01*
X143405385Y-76464524D01*
X143510873Y-77077058D01*
X143534704Y-77159828D01*
X143813752Y-77825146D01*
X144162938Y-78349512D01*
X144461224Y-78580596D01*
X145121244Y-78796227D01*
X145812205Y-78772293D01*
X146353124Y-78496637D01*
X146655189Y-78007904D01*
X146827060Y-77193335D01*
X146784281Y-76260810D01*
X146519515Y-75349128D01*
X146474669Y-75250731D01*
X145958414Y-74450336D01*
X145381459Y-74058909D01*
X144785792Y-74076586D01*
X144213401Y-74503509D01*
X143706271Y-75339815D01*
X143488889Y-75900727D01*
X143405385Y-76464524D01*
X143146749Y-76464524D01*
X143150151Y-75819259D01*
X143199021Y-75409729D01*
X143147723Y-75320871D01*
X142952365Y-75556074D01*
X142916519Y-75610604D01*
X142740428Y-76220257D01*
X142716356Y-77171979D01*
X142723168Y-77867233D01*
X142630136Y-78404520D01*
X142404823Y-78755891D01*
X142034953Y-79000713D01*
X141668356Y-78896523D01*
X141462600Y-78719448D01*
X141281234Y-78370944D01*
X141264385Y-78140739D01*
X141227240Y-77628152D01*
X141227053Y-77625708D01*
X141093495Y-77228504D01*
X140778207Y-76621404D01*
X140348838Y-75934818D01*
X140345288Y-75929588D01*
X139920641Y-75237747D01*
X139617819Y-74618836D01*
X139551565Y-74382480D01*
X139938024Y-74382480D01*
X140111765Y-74871812D01*
X140457062Y-75394839D01*
X140533068Y-75487805D01*
X141086410Y-76344977D01*
X141472957Y-77262477D01*
X141618333Y-78069034D01*
X141681616Y-78420164D01*
X141923341Y-78605000D01*
X142071774Y-78591429D01*
X142324323Y-78410657D01*
X142410440Y-77964429D01*
X142351053Y-77183179D01*
X142309642Y-76478751D01*
X142432051Y-75872196D01*
X142766177Y-75154216D01*
X142936026Y-74836981D01*
X143197394Y-74320980D01*
X143274832Y-74057413D01*
X143179277Y-73961468D01*
X142921664Y-73948333D01*
X142876954Y-73951999D01*
X142502573Y-74181507D01*
X142132697Y-74689166D01*
X142046504Y-74844636D01*
X141783267Y-75262370D01*
X141623116Y-75429993D01*
X141566935Y-75399115D01*
X141299661Y-75135121D01*
X140921393Y-74689160D01*
X140749741Y-74483999D01*
X140371706Y-74100482D01*
X140127643Y-73948333D01*
X139961667Y-74040256D01*
X139938024Y-74382480D01*
X139551565Y-74382480D01*
X139502171Y-74206273D01*
X139557914Y-73854746D01*
X139827070Y-73609059D01*
X140274094Y-73700551D01*
X140848612Y-74132000D01*
X141118129Y-74385857D01*
X141543377Y-74719441D01*
X141765785Y-74748568D01*
X141830000Y-74489502D01*
X141866873Y-74336080D01*
X142174219Y-73962861D01*
X142661196Y-73653810D01*
X143166913Y-73525000D01*
X143418939Y-73604893D01*
X143675882Y-73956795D01*
X143706534Y-74057413D01*
X143741613Y-74172567D01*
G36*
X143741613Y-74172567D02*
G01*
X143881074Y-74265419D01*
X144178219Y-74036170D01*
X144615192Y-73768227D01*
X145269048Y-73713726D01*
X145918295Y-73978080D01*
X146492435Y-74510284D01*
X146920974Y-75259335D01*
X147133414Y-76174230D01*
X147159944Y-76565020D01*
X147148936Y-77193335D01*
X147143192Y-77521211D01*
X146964090Y-78206911D01*
X146602121Y-78720454D01*
X146114857Y-79074996D01*
X145311210Y-79240000D01*
X144605046Y-79091361D01*
X143920765Y-78599791D01*
X143417660Y-77839094D01*
X143144524Y-76886505D01*
X143146749Y-76464524D01*
X143405385Y-76464524D01*
X143510873Y-77077058D01*
X143534704Y-77159828D01*
X143813752Y-77825146D01*
X144162938Y-78349512D01*
X144461224Y-78580596D01*
X145121244Y-78796227D01*
X145812205Y-78772293D01*
X146353124Y-78496637D01*
X146655189Y-78007904D01*
X146827060Y-77193335D01*
X146784281Y-76260810D01*
X146519515Y-75349128D01*
X146474669Y-75250731D01*
X145958414Y-74450336D01*
X145381459Y-74058909D01*
X144785792Y-74076586D01*
X144213401Y-74503509D01*
X143706271Y-75339815D01*
X143488889Y-75900727D01*
X143405385Y-76464524D01*
X143146749Y-76464524D01*
X143150151Y-75819259D01*
X143199021Y-75409729D01*
X143147723Y-75320871D01*
X142952365Y-75556074D01*
X142916519Y-75610604D01*
X142740428Y-76220257D01*
X142716356Y-77171979D01*
X142723168Y-77867233D01*
X142630136Y-78404520D01*
X142404823Y-78755891D01*
X142034953Y-79000713D01*
X141668356Y-78896523D01*
X141462600Y-78719448D01*
X141281234Y-78370944D01*
X141264385Y-78140739D01*
X141227240Y-77628152D01*
X141227053Y-77625708D01*
X141093495Y-77228504D01*
X140778207Y-76621404D01*
X140348838Y-75934818D01*
X140345288Y-75929588D01*
X139920641Y-75237747D01*
X139617819Y-74618836D01*
X139551565Y-74382480D01*
X139938024Y-74382480D01*
X140111765Y-74871812D01*
X140457062Y-75394839D01*
X140533068Y-75487805D01*
X141086410Y-76344977D01*
X141472957Y-77262477D01*
X141618333Y-78069034D01*
X141681616Y-78420164D01*
X141923341Y-78605000D01*
X142071774Y-78591429D01*
X142324323Y-78410657D01*
X142410440Y-77964429D01*
X142351053Y-77183179D01*
X142309642Y-76478751D01*
X142432051Y-75872196D01*
X142766177Y-75154216D01*
X142936026Y-74836981D01*
X143197394Y-74320980D01*
X143274832Y-74057413D01*
X143179277Y-73961468D01*
X142921664Y-73948333D01*
X142876954Y-73951999D01*
X142502573Y-74181507D01*
X142132697Y-74689166D01*
X142046504Y-74844636D01*
X141783267Y-75262370D01*
X141623116Y-75429993D01*
X141566935Y-75399115D01*
X141299661Y-75135121D01*
X140921393Y-74689160D01*
X140749741Y-74483999D01*
X140371706Y-74100482D01*
X140127643Y-73948333D01*
X139961667Y-74040256D01*
X139938024Y-74382480D01*
X139551565Y-74382480D01*
X139502171Y-74206273D01*
X139557914Y-73854746D01*
X139827070Y-73609059D01*
X140274094Y-73700551D01*
X140848612Y-74132000D01*
X141118129Y-74385857D01*
X141543377Y-74719441D01*
X141765785Y-74748568D01*
X141830000Y-74489502D01*
X141866873Y-74336080D01*
X142174219Y-73962861D01*
X142661196Y-73653810D01*
X143166913Y-73525000D01*
X143418939Y-73604893D01*
X143675882Y-73956795D01*
X143706534Y-74057413D01*
X143741613Y-74172567D01*
G37*
D14*
X201830000Y-120790000D02*
X192710000Y-120790000D01*
X201830000Y-92590000D02*
X201830000Y-120790000D01*
X200520000Y-119490000D02*
X194020000Y-119490000D01*
X200520000Y-93890000D02*
X200520000Y-119490000D01*
X194020000Y-119490000D02*
X194020000Y-108740000D01*
X194020000Y-108740000D02*
X192710000Y-108740000D01*
X194020000Y-104640000D02*
X194020000Y-104640000D01*
X194020000Y-104640000D02*
X194020000Y-93890000D01*
X194020000Y-93890000D02*
X200520000Y-93890000D01*
X192710000Y-120790000D02*
X192710000Y-92590000D01*
X192710000Y-104640000D02*
X194020000Y-104640000D01*
X192710000Y-92590000D02*
X201830000Y-92590000D01*
X192320000Y-115580000D02*
X191320000Y-115080000D01*
X191320000Y-116080000D02*
X192320000Y-115580000D01*
X191320000Y-115080000D02*
X191320000Y-116080000D01*
M02*
